<svg width="413" height="337" viewBox="0 0 413 337" fill="none" xmlns="http://www.w3.org/2000/svg">
<g filter="url(#filter0_f_3_1404)">
<rect x="55" y="54.7407" width="303" height="227.697" rx="16" fill="#222222" fill-opacity="0.08"/>
</g>
<rect x="40" y="42.4714" width="303" height="203.752" rx="16" fill="white"/>
<g clip-path="url(#clip0_3_1404)">
<path d="M87.6992 93.8259H85.9414L82.5195 88.2126V93.8259H80.7617V85.2947H82.5195L85.9473 90.9197V85.2947H87.6992V93.8259ZM93.2969 93.8259C93.2188 93.6736 93.1621 93.4841 93.127 93.2576C92.7168 93.7146 92.1836 93.9431 91.5273 93.9431C90.9062 93.9431 90.3906 93.7634 89.9805 93.4041C89.5742 93.0447 89.3711 92.5916 89.3711 92.0447C89.3711 91.3728 89.6191 90.8572 90.1152 90.4978C90.6152 90.1384 91.3359 89.9568 92.2773 89.9529H93.0566V89.5896C93.0566 89.2966 92.9805 89.0623 92.8281 88.8865C92.6797 88.7107 92.4434 88.6228 92.1191 88.6228C91.834 88.6228 91.6094 88.6912 91.4453 88.8279C91.2852 88.9646 91.2051 89.1521 91.2051 89.3904H89.5117C89.5117 89.0232 89.625 88.6833 89.8516 88.3708C90.0781 88.0583 90.3984 87.8142 90.8125 87.6384C91.2266 87.4587 91.6914 87.3689 92.207 87.3689C92.9883 87.3689 93.6074 87.5662 94.0645 87.9607C94.5254 88.3513 94.7559 88.9021 94.7559 89.613V92.3611C94.7598 92.9626 94.8438 93.4177 95.0078 93.7263V93.8259H93.2969ZM91.8965 92.6482C92.1465 92.6482 92.377 92.5935 92.5879 92.4841C92.7988 92.3708 92.9551 92.2205 93.0566 92.033V90.9431H92.4238C91.5762 90.9431 91.125 91.2361 91.0703 91.822L91.0645 91.9216C91.0645 92.1326 91.1387 92.3064 91.2871 92.4431C91.4355 92.5798 91.6387 92.6482 91.8965 92.6482ZM98.1445 87.4861L98.1973 88.1951C98.6465 87.6443 99.2539 87.3689 100.02 87.3689C100.836 87.3689 101.396 87.6912 101.701 88.3357C102.146 87.6912 102.781 87.3689 103.605 87.3689C104.293 87.3689 104.805 87.5701 105.141 87.9724C105.477 88.3708 105.645 88.9724 105.645 89.7771V93.8259H103.945V89.783C103.945 89.4236 103.875 89.1619 103.734 88.9978C103.594 88.8298 103.346 88.7458 102.99 88.7458C102.482 88.7458 102.131 88.988 101.936 89.4724L101.941 93.8259H100.248V89.7888C100.248 89.4216 100.176 89.156 100.031 88.9919C99.8867 88.8279 99.6406 88.7458 99.293 88.7458C98.8125 88.7458 98.4648 88.9451 98.25 89.3435V93.8259H96.5566V87.4861H98.1445ZM110.369 93.9431C109.439 93.9431 108.682 93.658 108.096 93.0876C107.514 92.5173 107.223 91.7576 107.223 90.8083V90.6443C107.223 90.0076 107.346 89.4392 107.592 88.9392C107.838 88.4353 108.186 88.0486 108.635 87.7791C109.088 87.5056 109.604 87.3689 110.182 87.3689C111.049 87.3689 111.73 87.6423 112.227 88.1892C112.727 88.7361 112.977 89.5115 112.977 90.5154V91.2068H108.939C108.994 91.6208 109.158 91.9529 109.432 92.2029C109.709 92.4529 110.059 92.5779 110.48 92.5779C111.133 92.5779 111.643 92.3416 112.01 91.8689L112.842 92.8005C112.588 93.1599 112.244 93.4412 111.811 93.6443C111.377 93.8435 110.896 93.9431 110.369 93.9431ZM110.176 88.74C109.84 88.74 109.566 88.8533 109.355 89.0798C109.148 89.3064 109.016 89.6306 108.957 90.0525H111.312V89.9177C111.305 89.5427 111.203 89.2537 111.008 89.0505C110.812 88.8435 110.535 88.74 110.176 88.74Z" fill="#0A2B43"/>
<path d="M86.8496 112.873H88.1621V119.606C88.1621 120.354 87.9958 120.976 87.6631 121.472C87.3304 121.969 86.8883 122.343 86.3369 122.594C85.79 122.84 85.1953 122.963 84.5527 122.963C83.8783 122.963 83.2676 122.84 82.7207 122.594C82.1784 122.343 81.7477 121.969 81.4287 121.472C81.1143 120.976 80.957 120.354 80.957 119.606V112.873H82.2627V119.606C82.2627 120.126 82.3584 120.554 82.5498 120.891C82.7412 121.229 83.0078 121.479 83.3496 121.643C83.696 121.807 84.097 121.889 84.5527 121.889C85.013 121.889 85.4141 121.807 85.7559 121.643C86.1022 121.479 86.3711 121.229 86.5625 120.891C86.7539 120.554 86.8496 120.126 86.8496 119.606V112.873ZM94.8486 120.864C94.8486 120.682 94.8076 120.513 94.7256 120.358C94.6481 120.199 94.4863 120.055 94.2402 119.927C93.9987 119.795 93.6341 119.681 93.1465 119.586C92.7363 119.499 92.3649 119.397 92.0322 119.278C91.7041 119.16 91.4238 119.016 91.1914 118.847C90.9635 118.679 90.7881 118.481 90.665 118.253C90.542 118.025 90.4805 117.758 90.4805 117.453C90.4805 117.161 90.5443 116.885 90.6719 116.626C90.804 116.366 90.9886 116.136 91.2256 115.935C91.4671 115.735 91.7565 115.578 92.0938 115.464C92.431 115.35 92.807 115.293 93.2217 115.293C93.8141 115.293 94.32 115.398 94.7393 115.607C95.1585 115.817 95.4798 116.097 95.7031 116.448C95.9264 116.794 96.0381 117.179 96.0381 117.603H94.7734C94.7734 117.398 94.7119 117.2 94.5889 117.009C94.4704 116.813 94.2949 116.651 94.0625 116.523C93.8346 116.396 93.5544 116.332 93.2217 116.332C92.8708 116.332 92.5859 116.386 92.3672 116.496C92.153 116.601 91.9958 116.735 91.8955 116.899C91.7998 117.063 91.752 117.236 91.752 117.419C91.752 117.555 91.7747 117.678 91.8203 117.788C91.8704 117.893 91.957 117.991 92.0801 118.082C92.2031 118.168 92.3763 118.25 92.5996 118.328C92.8229 118.405 93.1077 118.483 93.4541 118.56C94.0602 118.697 94.5592 118.861 94.9512 119.052C95.3431 119.244 95.6348 119.479 95.8262 119.757C96.0176 120.035 96.1133 120.372 96.1133 120.768C96.1133 121.092 96.0449 121.388 95.9082 121.657C95.776 121.926 95.5824 122.158 95.3271 122.354C95.0765 122.546 94.7757 122.696 94.4248 122.805C94.0785 122.91 93.6888 122.963 93.2559 122.963C92.6042 122.963 92.0527 122.846 91.6016 122.614C91.1504 122.382 90.8086 122.081 90.5762 121.712C90.3438 121.343 90.2275 120.953 90.2275 120.543H91.499C91.5173 120.889 91.6175 121.165 91.7998 121.37C91.9821 121.57 92.2054 121.714 92.4697 121.801C92.734 121.883 92.9961 121.924 93.2559 121.924C93.6022 121.924 93.8916 121.878 94.124 121.787C94.361 121.696 94.541 121.57 94.6641 121.411C94.7871 121.251 94.8486 121.069 94.8486 120.864ZM101.344 122.963C100.829 122.963 100.362 122.876 99.9424 122.703C99.5277 122.525 99.1699 122.277 98.8691 121.958C98.5729 121.639 98.3451 121.26 98.1855 120.823C98.026 120.385 97.9463 119.907 97.9463 119.387V119.1C97.9463 118.499 98.0352 117.963 98.2129 117.494C98.3906 117.02 98.6322 116.619 98.9375 116.291C99.2428 115.963 99.5892 115.714 99.9766 115.546C100.364 115.377 100.765 115.293 101.18 115.293C101.708 115.293 102.164 115.384 102.547 115.566C102.934 115.748 103.251 116.004 103.497 116.332C103.743 116.655 103.925 117.038 104.044 117.48C104.162 117.918 104.222 118.396 104.222 118.916V119.483H98.6982V118.451H102.957V118.355C102.939 118.027 102.87 117.708 102.752 117.398C102.638 117.088 102.456 116.833 102.205 116.633C101.954 116.432 101.613 116.332 101.18 116.332C100.893 116.332 100.628 116.393 100.387 116.516C100.145 116.635 99.9378 116.813 99.7646 117.05C99.5915 117.287 99.457 117.576 99.3613 117.918C99.2656 118.26 99.2178 118.654 99.2178 119.1V119.387C99.2178 119.738 99.2656 120.069 99.3613 120.379C99.4616 120.684 99.6051 120.953 99.792 121.185C99.9834 121.418 100.214 121.6 100.482 121.732C100.756 121.864 101.066 121.93 101.412 121.93C101.859 121.93 102.237 121.839 102.547 121.657C102.857 121.475 103.128 121.231 103.36 120.926L104.126 121.534C103.966 121.775 103.764 122.006 103.518 122.224C103.271 122.443 102.968 122.621 102.608 122.758C102.253 122.894 101.831 122.963 101.344 122.963ZM107.463 116.592V122.826H106.198V115.429H107.429L107.463 116.592ZM109.773 115.388L109.767 116.564C109.662 116.541 109.562 116.528 109.466 116.523C109.375 116.514 109.27 116.51 109.151 116.51C108.86 116.51 108.602 116.555 108.379 116.646C108.156 116.737 107.966 116.865 107.812 117.029C107.657 117.193 107.534 117.389 107.442 117.617C107.356 117.84 107.299 118.086 107.271 118.355L106.916 118.56C106.916 118.114 106.959 117.694 107.046 117.302C107.137 116.911 107.276 116.564 107.463 116.263C107.65 115.958 107.887 115.721 108.174 115.552C108.465 115.379 108.812 115.293 109.213 115.293C109.304 115.293 109.409 115.304 109.527 115.327C109.646 115.345 109.728 115.366 109.773 115.388ZM112.707 117.009V122.826H111.442V115.429H112.639L112.707 117.009ZM112.406 118.847L111.88 118.827C111.884 118.321 111.96 117.854 112.105 117.426C112.251 116.993 112.456 116.617 112.721 116.298C112.985 115.979 113.299 115.733 113.664 115.559C114.033 115.382 114.441 115.293 114.888 115.293C115.252 115.293 115.58 115.343 115.872 115.443C116.164 115.539 116.412 115.694 116.617 115.908C116.827 116.122 116.986 116.4 117.096 116.742C117.205 117.079 117.26 117.492 117.26 117.979V122.826H115.988V117.966C115.988 117.578 115.931 117.268 115.817 117.036C115.703 116.799 115.537 116.628 115.318 116.523C115.1 116.414 114.831 116.359 114.512 116.359C114.197 116.359 113.91 116.425 113.65 116.557C113.395 116.69 113.174 116.872 112.987 117.104C112.805 117.337 112.661 117.603 112.557 117.904C112.456 118.2 112.406 118.515 112.406 118.847ZM124.042 121.561V117.754C124.042 117.462 123.983 117.209 123.864 116.995C123.75 116.776 123.577 116.608 123.345 116.489C123.112 116.371 122.825 116.311 122.483 116.311C122.164 116.311 121.884 116.366 121.643 116.475C121.406 116.585 121.219 116.728 121.082 116.906C120.95 117.084 120.884 117.275 120.884 117.48H119.619C119.619 117.216 119.688 116.954 119.824 116.694C119.961 116.434 120.157 116.2 120.412 115.99C120.672 115.776 120.982 115.607 121.342 115.484C121.706 115.357 122.112 115.293 122.559 115.293C123.096 115.293 123.57 115.384 123.98 115.566C124.395 115.748 124.719 116.024 124.951 116.393C125.188 116.758 125.307 117.216 125.307 117.767V121.213C125.307 121.459 125.327 121.721 125.368 121.999C125.414 122.277 125.48 122.516 125.566 122.717V122.826H124.247C124.183 122.68 124.133 122.486 124.097 122.245C124.06 121.999 124.042 121.771 124.042 121.561ZM124.261 118.342L124.274 119.23H122.996C122.636 119.23 122.315 119.26 122.032 119.319C121.75 119.374 121.513 119.458 121.321 119.572C121.13 119.686 120.984 119.83 120.884 120.003C120.784 120.171 120.733 120.37 120.733 120.597C120.733 120.83 120.786 121.042 120.891 121.233C120.995 121.425 121.153 121.577 121.362 121.691C121.576 121.801 121.839 121.855 122.148 121.855C122.536 121.855 122.878 121.773 123.174 121.609C123.47 121.445 123.705 121.245 123.878 121.008C124.056 120.771 124.151 120.54 124.165 120.317L124.705 120.926C124.673 121.117 124.587 121.329 124.445 121.561C124.304 121.794 124.115 122.017 123.878 122.231C123.646 122.441 123.368 122.616 123.044 122.758C122.725 122.894 122.365 122.963 121.964 122.963C121.463 122.963 121.023 122.865 120.645 122.669C120.271 122.473 119.979 122.211 119.77 121.883C119.564 121.55 119.462 121.178 119.462 120.768C119.462 120.372 119.539 120.023 119.694 119.722C119.849 119.417 120.073 119.164 120.364 118.964C120.656 118.759 121.007 118.604 121.417 118.499C121.827 118.394 122.285 118.342 122.791 118.342H124.261ZM129.054 116.899V122.826H127.782V115.429H128.985L129.054 116.899ZM128.794 118.847L128.206 118.827C128.211 118.321 128.277 117.854 128.404 117.426C128.532 116.993 128.721 116.617 128.972 116.298C129.222 115.979 129.535 115.733 129.908 115.559C130.282 115.382 130.715 115.293 131.207 115.293C131.553 115.293 131.872 115.343 132.164 115.443C132.456 115.539 132.709 115.691 132.923 115.901C133.137 116.111 133.303 116.38 133.422 116.708C133.54 117.036 133.6 117.432 133.6 117.897V122.826H132.335V117.959C132.335 117.571 132.269 117.261 132.137 117.029C132.009 116.797 131.827 116.628 131.59 116.523C131.353 116.414 131.075 116.359 130.756 116.359C130.382 116.359 130.07 116.425 129.819 116.557C129.569 116.69 129.368 116.872 129.218 117.104C129.067 117.337 128.958 117.603 128.89 117.904C128.826 118.2 128.794 118.515 128.794 118.847ZM133.586 118.15L132.738 118.41C132.743 118.004 132.809 117.615 132.937 117.241C133.069 116.867 133.258 116.535 133.504 116.243C133.755 115.951 134.062 115.721 134.427 115.552C134.791 115.379 135.208 115.293 135.678 115.293C136.074 115.293 136.425 115.345 136.73 115.45C137.04 115.555 137.3 115.717 137.51 115.935C137.724 116.149 137.886 116.425 137.995 116.762C138.104 117.1 138.159 117.501 138.159 117.966V122.826H136.888V117.952C136.888 117.537 136.822 117.216 136.689 116.988C136.562 116.756 136.38 116.594 136.143 116.503C135.91 116.407 135.632 116.359 135.309 116.359C135.031 116.359 134.785 116.407 134.57 116.503C134.356 116.598 134.176 116.731 134.03 116.899C133.884 117.063 133.773 117.252 133.695 117.467C133.622 117.681 133.586 117.909 133.586 118.15ZM143.643 122.963C143.128 122.963 142.66 122.876 142.241 122.703C141.826 122.525 141.469 122.277 141.168 121.958C140.872 121.639 140.644 121.26 140.484 120.823C140.325 120.385 140.245 119.907 140.245 119.387V119.1C140.245 118.499 140.334 117.963 140.512 117.494C140.689 117.02 140.931 116.619 141.236 116.291C141.542 115.963 141.888 115.714 142.275 115.546C142.663 115.377 143.064 115.293 143.479 115.293C144.007 115.293 144.463 115.384 144.846 115.566C145.233 115.748 145.55 116.004 145.796 116.332C146.042 116.655 146.224 117.038 146.343 117.48C146.461 117.918 146.521 118.396 146.521 118.916V119.483H140.997V118.451H145.256V118.355C145.238 118.027 145.169 117.708 145.051 117.398C144.937 117.088 144.755 116.833 144.504 116.633C144.253 116.432 143.911 116.332 143.479 116.332C143.191 116.332 142.927 116.393 142.686 116.516C142.444 116.635 142.237 116.813 142.063 117.05C141.89 117.287 141.756 117.576 141.66 117.918C141.564 118.26 141.517 118.654 141.517 119.1V119.387C141.517 119.738 141.564 120.069 141.66 120.379C141.76 120.684 141.904 120.953 142.091 121.185C142.282 121.418 142.512 121.6 142.781 121.732C143.055 121.864 143.365 121.93 143.711 121.93C144.158 121.93 144.536 121.839 144.846 121.657C145.156 121.475 145.427 121.231 145.659 120.926L146.425 121.534C146.265 121.775 146.062 122.006 145.816 122.224C145.57 122.443 145.267 122.621 144.907 122.758C144.552 122.894 144.13 122.963 143.643 122.963ZM159.162 117.152V118.225H153.775V117.152H159.162ZM153.98 112.873V122.826H152.661V112.873H153.98ZM160.311 112.873V122.826H158.998V112.873H160.311ZM166.033 122.963C165.518 122.963 165.051 122.876 164.632 122.703C164.217 122.525 163.859 122.277 163.559 121.958C163.262 121.639 163.035 121.26 162.875 120.823C162.715 120.385 162.636 119.907 162.636 119.387V119.1C162.636 118.499 162.725 117.963 162.902 117.494C163.08 117.02 163.322 116.619 163.627 116.291C163.932 115.963 164.279 115.714 164.666 115.546C165.053 115.377 165.454 115.293 165.869 115.293C166.398 115.293 166.854 115.384 167.236 115.566C167.624 115.748 167.94 116.004 168.187 116.332C168.433 116.655 168.615 117.038 168.733 117.48C168.852 117.918 168.911 118.396 168.911 118.916V119.483H163.388V118.451H167.646V118.355C167.628 118.027 167.56 117.708 167.441 117.398C167.327 117.088 167.145 116.833 166.895 116.633C166.644 116.432 166.302 116.332 165.869 116.332C165.582 116.332 165.318 116.393 165.076 116.516C164.835 116.635 164.627 116.813 164.454 117.05C164.281 117.287 164.146 117.576 164.051 117.918C163.955 118.26 163.907 118.654 163.907 119.1V119.387C163.907 119.738 163.955 120.069 164.051 120.379C164.151 120.684 164.295 120.953 164.481 121.185C164.673 121.418 164.903 121.6 165.172 121.732C165.445 121.864 165.755 121.93 166.102 121.93C166.548 121.93 166.926 121.839 167.236 121.657C167.546 121.475 167.817 121.231 168.05 120.926L168.815 121.534C168.656 121.775 168.453 122.006 168.207 122.224C167.961 122.443 167.658 122.621 167.298 122.758C166.942 122.894 166.521 122.963 166.033 122.963ZM172.152 116.592V122.826H170.888V115.429H172.118L172.152 116.592ZM174.463 115.388L174.456 116.564C174.351 116.541 174.251 116.528 174.155 116.523C174.064 116.514 173.959 116.51 173.841 116.51C173.549 116.51 173.292 116.555 173.068 116.646C172.845 116.737 172.656 116.865 172.501 117.029C172.346 117.193 172.223 117.389 172.132 117.617C172.045 117.84 171.988 118.086 171.961 118.355L171.605 118.56C171.605 118.114 171.649 117.694 171.735 117.302C171.826 116.911 171.965 116.564 172.152 116.263C172.339 115.958 172.576 115.721 172.863 115.552C173.155 115.379 173.501 115.293 173.902 115.293C173.993 115.293 174.098 115.304 174.217 115.327C174.335 115.345 174.417 115.366 174.463 115.388ZM179.064 122.963C178.549 122.963 178.082 122.876 177.663 122.703C177.248 122.525 176.891 122.277 176.59 121.958C176.294 121.639 176.066 121.26 175.906 120.823C175.747 120.385 175.667 119.907 175.667 119.387V119.1C175.667 118.499 175.756 117.963 175.934 117.494C176.111 117.02 176.353 116.619 176.658 116.291C176.964 115.963 177.31 115.714 177.697 115.546C178.085 115.377 178.486 115.293 178.9 115.293C179.429 115.293 179.885 115.384 180.268 115.566C180.655 115.748 180.972 116.004 181.218 116.332C181.464 116.655 181.646 117.038 181.765 117.48C181.883 117.918 181.942 118.396 181.942 118.916V119.483H176.419V118.451H180.678V118.355C180.66 118.027 180.591 117.708 180.473 117.398C180.359 117.088 180.176 116.833 179.926 116.633C179.675 116.432 179.333 116.332 178.9 116.332C178.613 116.332 178.349 116.393 178.107 116.516C177.866 116.635 177.659 116.813 177.485 117.05C177.312 117.287 177.178 117.576 177.082 117.918C176.986 118.26 176.938 118.654 176.938 119.1V119.387C176.938 119.738 176.986 120.069 177.082 120.379C177.182 120.684 177.326 120.953 177.513 121.185C177.704 121.418 177.934 121.6 178.203 121.732C178.477 121.864 178.786 121.93 179.133 121.93C179.579 121.93 179.958 121.839 180.268 121.657C180.577 121.475 180.849 121.231 181.081 120.926L181.847 121.534C181.687 121.775 181.484 122.006 181.238 122.224C180.992 122.443 180.689 122.621 180.329 122.758C179.974 122.894 179.552 122.963 179.064 122.963Z" fill="#0A2B43"/>
<path fill-rule="evenodd" clip-rule="evenodd" d="M291 126.207C297.627 126.207 303 121.743 303 116.235C303 110.728 297.627 106.263 291 106.263C284.373 106.263 279 110.728 279 116.235C279 121.743 284.373 126.207 291 126.207Z" fill="#FF6812"/>
<path d="M286 116.235L289.333 118.728L296 113.742" stroke="white" stroke-width="2" stroke-linecap="round" stroke-linejoin="round"/>
<path d="M303 134.518H80" stroke="#222222" stroke-opacity="0.15"/>
</g>
<g clip-path="url(#clip1_3_1404)">
<path d="M80.924 170.279V161.819H86.552V163.043H82.4V165.371H86.288V166.595H82.4V169.055H86.552V170.279H80.924ZM87.6242 170.279L90.0842 167.243L87.7802 164.411H89.5322L90.9482 166.223L92.3642 164.411H94.1162L91.8002 167.255L94.2722 170.279H92.5082L90.9362 168.299L89.3762 170.279H87.6242ZM98.2306 170.399C97.5666 170.399 96.9946 170.275 96.5146 170.027C96.0346 169.779 95.6626 169.427 95.3986 168.971C95.1426 168.515 95.0146 167.975 95.0146 167.351C95.0146 166.743 95.1386 166.211 95.3866 165.755C95.6426 165.299 95.9906 164.943 96.4306 164.687C96.8786 164.423 97.3866 164.291 97.9546 164.291C98.7866 164.291 99.4426 164.555 99.9226 165.083C100.411 165.611 100.655 166.331 100.655 167.243V167.687H96.4546C96.5666 168.735 97.1666 169.259 98.2546 169.259C98.5826 169.259 98.9106 169.211 99.2386 169.115C99.5666 169.011 99.8666 168.851 100.139 168.635L100.559 169.643C100.279 169.875 99.9266 170.059 99.5026 170.195C99.0786 170.331 98.6546 170.399 98.2306 170.399ZM98.0146 165.311C97.5746 165.311 97.2186 165.447 96.9466 165.719C96.6746 165.991 96.5106 166.359 96.4546 166.823H99.4066C99.3746 166.335 99.2386 165.963 98.9986 165.707C98.7666 165.443 98.4386 165.311 98.0146 165.311ZM102.343 172.439V164.411H103.807V165.347C103.975 165.027 104.227 164.771 104.562 164.579C104.907 164.387 105.295 164.291 105.727 164.291C106.239 164.291 106.687 164.415 107.071 164.663C107.463 164.911 107.767 165.263 107.983 165.719C108.199 166.167 108.307 166.707 108.307 167.339C108.307 167.963 108.199 168.507 107.983 168.971C107.767 169.427 107.467 169.779 107.083 170.027C106.699 170.275 106.247 170.399 105.727 170.399C105.311 170.399 104.935 170.311 104.599 170.135C104.271 169.951 104.019 169.707 103.843 169.403V172.439H102.343ZM105.307 169.259C105.755 169.259 106.115 169.099 106.387 168.779C106.659 168.451 106.795 167.971 106.795 167.339C106.795 166.699 106.659 166.223 106.387 165.911C106.115 165.591 105.755 165.431 105.307 165.431C104.859 165.431 104.499 165.591 104.227 165.911C103.955 166.223 103.819 166.699 103.819 167.339C103.819 167.971 103.955 168.451 104.227 168.779C104.499 169.099 104.859 169.259 105.307 169.259ZM110.038 170.279V164.411H111.502V165.443C111.79 164.747 112.406 164.363 113.35 164.291L113.806 164.255L113.902 165.527L113.038 165.611C112.054 165.707 111.562 166.211 111.562 167.123V170.279H110.038ZM115.141 163.151V161.687H116.821V163.151H115.141ZM115.237 170.279V164.411H116.737V170.279H115.237ZM121.688 170.399C121.024 170.399 120.452 170.275 119.972 170.027C119.492 169.779 119.12 169.427 118.856 168.971C118.6 168.515 118.472 167.975 118.472 167.351C118.472 166.743 118.596 166.211 118.844 165.755C119.1 165.299 119.448 164.943 119.888 164.687C120.336 164.423 120.844 164.291 121.412 164.291C122.244 164.291 122.9 164.555 123.38 165.083C123.868 165.611 124.112 166.331 124.112 167.243V167.687H119.912C120.024 168.735 120.624 169.259 121.712 169.259C122.04 169.259 122.368 169.211 122.696 169.115C123.024 169.011 123.324 168.851 123.596 168.635L124.016 169.643C123.736 169.875 123.384 170.059 122.96 170.195C122.536 170.331 122.112 170.399 121.688 170.399ZM121.472 165.311C121.032 165.311 120.676 165.447 120.404 165.719C120.132 165.991 119.968 166.359 119.912 166.823H122.864C122.832 166.335 122.696 165.963 122.456 165.707C122.224 165.443 121.896 165.311 121.472 165.311ZM125.8 170.279V164.411H127.264V165.323C127.464 164.987 127.732 164.731 128.068 164.555C128.412 164.379 128.796 164.291 129.22 164.291C130.604 164.291 131.296 165.095 131.296 166.703V170.279H129.796V166.775C129.796 166.319 129.708 165.987 129.532 165.779C129.364 165.571 129.1 165.467 128.74 165.467C128.3 165.467 127.948 165.607 127.684 165.887C127.428 166.159 127.3 166.523 127.3 166.979V170.279H125.8ZM136.031 170.399C135.415 170.399 134.879 170.275 134.423 170.027C133.967 169.771 133.615 169.411 133.367 168.947C133.119 168.483 132.995 167.939 132.995 167.315C132.995 166.691 133.119 166.155 133.367 165.707C133.615 165.251 133.967 164.903 134.423 164.663C134.879 164.415 135.415 164.291 136.031 164.291C136.407 164.291 136.779 164.351 137.147 164.471C137.515 164.591 137.819 164.759 138.059 164.975L137.615 166.019C137.407 165.835 137.171 165.695 136.907 165.599C136.651 165.503 136.403 165.455 136.163 165.455C135.643 165.455 135.239 165.619 134.951 165.947C134.671 166.267 134.531 166.727 134.531 167.327C134.531 167.919 134.671 168.387 134.951 168.731C135.239 169.067 135.643 169.235 136.163 169.235C136.395 169.235 136.643 169.187 136.907 169.091C137.171 168.995 137.407 168.851 137.615 168.659L138.059 169.715C137.819 169.923 137.511 170.091 137.135 170.219C136.767 170.339 136.399 170.399 136.031 170.399ZM142.254 170.399C141.59 170.399 141.018 170.275 140.538 170.027C140.058 169.779 139.686 169.427 139.422 168.971C139.166 168.515 139.038 167.975 139.038 167.351C139.038 166.743 139.162 166.211 139.41 165.755C139.666 165.299 140.014 164.943 140.454 164.687C140.902 164.423 141.41 164.291 141.978 164.291C142.81 164.291 143.466 164.555 143.946 165.083C144.434 165.611 144.678 166.331 144.678 167.243V167.687H140.478C140.59 168.735 141.19 169.259 142.278 169.259C142.606 169.259 142.934 169.211 143.262 169.115C143.59 169.011 143.89 168.851 144.162 168.635L144.582 169.643C144.302 169.875 143.95 170.059 143.526 170.195C143.102 170.331 142.678 170.399 142.254 170.399ZM142.038 165.311C141.598 165.311 141.242 165.447 140.97 165.719C140.698 165.991 140.534 166.359 140.478 166.823H143.43C143.398 166.335 143.262 165.963 143.022 165.707C142.79 165.443 142.462 165.311 142.038 165.311Z" fill="#0A2B43"/>
<path d="M85.3394 188.556V199.279H83.9844V190.248L81.2524 191.244V190.021L85.127 188.556H85.3394ZM96.5181 193.097V194.723C96.5181 195.597 96.4399 196.335 96.2837 196.935C96.1274 197.536 95.9028 198.019 95.6099 198.385C95.3169 198.752 94.9629 199.018 94.5479 199.184C94.1377 199.345 93.6738 199.425 93.1562 199.425C92.7461 199.425 92.3677 199.374 92.021 199.272C91.6743 199.169 91.3618 199.005 91.0835 198.781C90.8101 198.551 90.5757 198.253 90.3804 197.887C90.1851 197.521 90.0361 197.077 89.9336 196.554C89.8311 196.032 89.7798 195.421 89.7798 194.723V193.097C89.7798 192.223 89.8579 191.491 90.0142 190.9C90.1753 190.309 90.4023 189.836 90.6953 189.479C90.9883 189.118 91.3398 188.859 91.75 188.703C92.165 188.546 92.6289 188.468 93.1416 188.468C93.5566 188.468 93.9375 188.52 94.2842 188.622C94.6357 188.72 94.9482 188.878 95.2217 189.098C95.4951 189.313 95.7271 189.601 95.9175 189.962C96.1128 190.319 96.2617 190.756 96.3643 191.273C96.4668 191.791 96.5181 192.399 96.5181 193.097ZM95.1558 194.943V192.87C95.1558 192.392 95.1265 191.972 95.0679 191.61C95.0142 191.244 94.9336 190.932 94.8262 190.673C94.7188 190.414 94.582 190.204 94.416 190.043C94.2549 189.882 94.0669 189.765 93.8521 189.691C93.6421 189.613 93.4053 189.574 93.1416 189.574C92.8193 189.574 92.5337 189.635 92.2847 189.757C92.0356 189.875 91.8257 190.063 91.6548 190.321C91.4888 190.58 91.3618 190.919 91.2739 191.339C91.186 191.759 91.1421 192.27 91.1421 192.87V194.943C91.1421 195.421 91.1689 195.844 91.2227 196.21C91.2812 196.576 91.3667 196.894 91.479 197.162C91.5913 197.426 91.728 197.643 91.8892 197.814C92.0503 197.985 92.2358 198.112 92.4458 198.195C92.6606 198.273 92.8975 198.312 93.1562 198.312C93.4883 198.312 93.7788 198.249 94.0278 198.122C94.2769 197.995 94.4844 197.797 94.6504 197.528C94.8213 197.255 94.9482 196.906 95.0312 196.481C95.1143 196.051 95.1558 195.539 95.1558 194.943ZM103.824 188.615L106.593 193.969L109.369 188.615H110.973L107.296 195.294V199.279H105.882V195.294L102.206 188.615H103.824ZM115.442 199.425C114.891 199.425 114.39 199.333 113.941 199.147C113.497 198.957 113.113 198.69 112.791 198.349C112.474 198.007 112.229 197.602 112.059 197.133C111.888 196.664 111.802 196.151 111.802 195.595V195.287C111.802 194.643 111.897 194.069 112.088 193.566C112.278 193.058 112.537 192.628 112.864 192.277C113.191 191.925 113.562 191.659 113.978 191.479C114.393 191.298 114.822 191.208 115.267 191.208C115.833 191.208 116.321 191.305 116.731 191.501C117.146 191.696 117.486 191.969 117.75 192.321C118.013 192.668 118.208 193.078 118.335 193.551C118.462 194.02 118.526 194.533 118.526 195.089V195.697H112.608V194.591H117.171V194.489C117.151 194.137 117.078 193.795 116.951 193.463C116.829 193.131 116.634 192.858 116.365 192.643C116.097 192.428 115.73 192.321 115.267 192.321C114.959 192.321 114.676 192.387 114.417 192.519C114.158 192.646 113.936 192.836 113.75 193.09C113.565 193.344 113.421 193.654 113.318 194.02C113.216 194.386 113.165 194.809 113.165 195.287V195.595C113.165 195.971 113.216 196.325 113.318 196.657C113.426 196.984 113.58 197.272 113.78 197.521C113.985 197.77 114.231 197.965 114.52 198.107C114.812 198.249 115.145 198.319 115.516 198.319C115.994 198.319 116.399 198.222 116.731 198.026C117.063 197.831 117.354 197.57 117.603 197.243L118.423 197.895C118.252 198.153 118.035 198.4 117.771 198.634C117.508 198.869 117.183 199.059 116.797 199.206C116.417 199.352 115.965 199.425 115.442 199.425ZM125.281 197.924V193.844C125.281 193.532 125.217 193.261 125.09 193.031C124.968 192.797 124.783 192.616 124.534 192.489C124.285 192.362 123.977 192.299 123.611 192.299C123.269 192.299 122.969 192.357 122.71 192.475C122.456 192.592 122.256 192.746 122.109 192.936C121.968 193.127 121.897 193.332 121.897 193.551H120.542C120.542 193.268 120.615 192.987 120.762 192.709C120.908 192.431 121.118 192.179 121.392 191.955C121.67 191.725 122.002 191.544 122.388 191.413C122.778 191.276 123.213 191.208 123.691 191.208C124.268 191.208 124.775 191.305 125.215 191.501C125.659 191.696 126.006 191.991 126.255 192.387C126.509 192.777 126.636 193.268 126.636 193.859V197.55C126.636 197.814 126.658 198.095 126.702 198.393C126.75 198.69 126.821 198.947 126.914 199.162V199.279H125.5C125.432 199.123 125.378 198.915 125.339 198.656C125.3 198.393 125.281 198.148 125.281 197.924ZM125.515 194.474L125.53 195.426H124.16C123.774 195.426 123.43 195.458 123.127 195.522C122.825 195.58 122.571 195.67 122.366 195.793C122.161 195.915 122.004 196.068 121.897 196.254C121.79 196.435 121.736 196.647 121.736 196.891C121.736 197.14 121.792 197.367 121.904 197.572C122.017 197.777 122.185 197.941 122.41 198.063C122.639 198.18 122.92 198.239 123.252 198.239C123.667 198.239 124.033 198.151 124.351 197.975C124.668 197.799 124.919 197.585 125.105 197.331C125.295 197.077 125.398 196.83 125.413 196.591L125.991 197.243C125.957 197.448 125.864 197.675 125.713 197.924C125.562 198.173 125.359 198.412 125.105 198.642C124.856 198.866 124.558 199.054 124.211 199.206C123.87 199.352 123.484 199.425 123.054 199.425C122.517 199.425 122.046 199.32 121.641 199.11C121.24 198.9 120.928 198.62 120.703 198.268C120.483 197.912 120.374 197.514 120.374 197.074C120.374 196.649 120.457 196.276 120.623 195.954C120.789 195.627 121.028 195.356 121.34 195.141C121.653 194.921 122.029 194.755 122.468 194.643C122.908 194.53 123.398 194.474 123.94 194.474H125.515ZM130.622 192.599V199.279H129.267V191.354H130.585L130.622 192.599ZM133.098 191.31L133.09 192.57C132.978 192.545 132.871 192.531 132.768 192.526C132.67 192.516 132.558 192.511 132.431 192.511C132.119 192.511 131.843 192.56 131.604 192.658C131.364 192.755 131.162 192.892 130.996 193.068C130.83 193.244 130.698 193.454 130.6 193.698C130.507 193.937 130.446 194.201 130.417 194.489L130.036 194.709C130.036 194.23 130.083 193.781 130.175 193.361C130.273 192.941 130.422 192.57 130.622 192.248C130.822 191.92 131.076 191.667 131.384 191.486C131.696 191.3 132.067 191.208 132.497 191.208C132.595 191.208 132.707 191.22 132.834 191.244C132.961 191.264 133.049 191.286 133.098 191.31ZM139.464 197.177C139.464 196.982 139.42 196.801 139.333 196.635C139.25 196.464 139.076 196.31 138.812 196.173C138.554 196.032 138.163 195.91 137.641 195.807C137.201 195.714 136.803 195.605 136.447 195.478C136.095 195.351 135.795 195.197 135.546 195.016C135.302 194.836 135.114 194.623 134.982 194.379C134.85 194.135 134.784 193.849 134.784 193.522C134.784 193.21 134.853 192.914 134.989 192.636C135.131 192.357 135.329 192.111 135.583 191.896C135.841 191.681 136.151 191.513 136.513 191.391C136.874 191.269 137.277 191.208 137.721 191.208C138.356 191.208 138.898 191.32 139.347 191.544C139.796 191.769 140.141 192.069 140.38 192.445C140.619 192.816 140.739 193.229 140.739 193.683H139.384C139.384 193.463 139.318 193.251 139.186 193.046C139.059 192.836 138.871 192.663 138.622 192.526C138.378 192.389 138.078 192.321 137.721 192.321C137.345 192.321 137.04 192.379 136.806 192.497C136.576 192.609 136.408 192.753 136.3 192.929C136.198 193.105 136.146 193.29 136.146 193.485C136.146 193.632 136.171 193.764 136.22 193.881C136.273 193.993 136.366 194.098 136.498 194.196C136.63 194.289 136.815 194.377 137.055 194.46C137.294 194.543 137.599 194.626 137.97 194.709C138.62 194.855 139.154 195.031 139.574 195.236C139.994 195.441 140.307 195.692 140.512 195.99C140.717 196.288 140.819 196.649 140.819 197.074C140.819 197.421 140.746 197.738 140.6 198.026C140.458 198.315 140.25 198.564 139.977 198.773C139.708 198.979 139.386 199.14 139.01 199.257C138.639 199.369 138.222 199.425 137.758 199.425C137.06 199.425 136.469 199.301 135.985 199.052C135.502 198.803 135.136 198.481 134.887 198.085C134.638 197.69 134.513 197.272 134.513 196.833H135.875C135.895 197.204 136.002 197.499 136.198 197.719C136.393 197.934 136.632 198.087 136.916 198.18C137.199 198.268 137.479 198.312 137.758 198.312C138.129 198.312 138.439 198.263 138.688 198.166C138.942 198.068 139.135 197.934 139.267 197.763C139.398 197.592 139.464 197.397 139.464 197.177Z" fill="#0A2B43"/>
<path fill-rule="evenodd" clip-rule="evenodd" d="M291 202.66C297.627 202.66 303 198.196 303 192.688C303 187.181 297.627 182.716 291 182.716C284.373 182.716 279 187.181 279 192.688C279 198.196 284.373 202.66 291 202.66Z" fill="#FF6812"/>
<path d="M286 192.688L289.333 195.181L296 190.195" stroke="white" stroke-width="2" stroke-linecap="round" stroke-linejoin="round"/>
<path d="M303 210.971H80" stroke="#222222" stroke-opacity="0.15"/>
</g>
<defs>
<filter id="filter0_f_3_1404" x="0.634365" y="0.375088" width="411.731" height="336.428" filterUnits="userSpaceOnUse" color-interpolation-filters="sRGB">
<feFlood flood-opacity="0" result="BackgroundImageFix"/>
<feBlend mode="normal" in="SourceGraphic" in2="BackgroundImageFix" result="shape"/>
<feGaussianBlur stdDeviation="27.1828" result="effect1_foregroundBlur_3_1404"/>
</filter>
<clipPath id="clip0_3_1404">
<rect width="223" height="51.5226" fill="white" transform="translate(80 83.8259)"/>
</clipPath>
<clipPath id="clip1_3_1404">
<rect width="223" height="51.5226" fill="white" transform="translate(80 160.279)"/>
</clipPath>
</defs>
</svg>
