<svg width="322" height="161" viewBox="0 0 322 161" fill="none" xmlns="http://www.w3.org/2000/svg">
<g opacity="0.15">
<mask id="path-1-inside-1_54_59" fill="white">
<path d="M322 161C322 118.3 305.038 77.3492 274.844 47.1559C244.651 16.9625 203.7 3.88398e-05 161 2.81501e-05C118.3 1.74605e-05 77.3492 16.9625 47.1559 47.1558C16.9625 77.3492 4.20635e-05 118.3 2.81501e-05 161L161 161L322 161Z"/>
</mask>
<path d="M322 161C322 118.3 305.038 77.3492 274.844 47.1559C244.651 16.9625 203.7 3.88398e-05 161 2.81501e-05C118.3 1.74605e-05 77.3492 16.9625 47.1559 47.1558C16.9625 77.3492 4.20635e-05 118.3 2.81501e-05 161L161 161L322 161Z" stroke="white" stroke-width="8" mask="url(#path-1-inside-1_54_59)"/>
</g>
</svg>
