<svg xmlns="http://www.w3.org/2000/svg" fill="none" viewBox="62 40 239 76">
<g filter="url(#filter0_d_3_1383)">
<rect width="239" height="76" rx="10" transform="matrix(-1 0 0 1 301 40)" fill="white"/>
</g>
<g clip-path="url(#clip0_3_1383)">
<rect opacity="0.4" width="42" height="42" rx="21" transform="matrix(-1 0 0 1 117 56.9402)" fill="#FF6812"/>
<path d="M92.1201 74.5885C93.1623 73.0943 93.8129 71.3798 94.0739 69.4388C94.0987 69.2539 94.2285 69.1001 94.4066 69.0445C96.2014 68.4842 97.2218 69.3746 97.2049 71.405C97.2017 71.7991 97.1836 72.1495 97.1453 72.6852C97.0595 73.882 97.0663 74.2086 97.1992 74.4284C97.3268 74.6396 97.7413 74.7117 98.7216 74.524C99.0309 74.4647 99.3412 74.3976 99.6849 74.3169C99.8366 74.2813 100.929 74.0123 101.209 73.9515C101.742 73.8354 102.124 73.7863 102.46 73.8071C103.371 73.8634 103.854 74.455 103.938 75.5884C104.085 77.5844 103.63 81.5935 103.177 83.0703C102.714 84.5793 101.906 85.1489 99.9664 85.1833C98.7195 85.2054 96.8018 85.2054 94.2044 85.1832C93.5413 85.1677 92.9404 85.0382 92.4059 84.796C92.5559 84.4826 92.64 84.1315 92.64 83.7608V76.0803C92.64 75.5165 92.4455 74.9981 92.1201 74.5885Z" fill="black"/>
<path d="M89.28 74.6399C88.4847 74.6399 87.84 75.2846 87.84 76.0799V83.7599C87.84 84.5552 88.4847 85.1999 89.28 85.1999H90.24C91.0353 85.1999 91.68 84.5552 91.68 83.7599V76.0799C91.68 75.2846 91.0353 74.6399 90.24 74.6399H89.28Z" fill="black"/>
</g>
<path d="M140.188 91.5649H141.688C141.609 92.2837 141.404 92.9269 141.07 93.4946C140.737 94.0623 140.266 94.5129 139.656 94.8462C139.047 95.1743 138.286 95.3384 137.375 95.3384C136.708 95.3384 136.102 95.2134 135.555 94.9634C135.013 94.7134 134.547 94.3592 134.156 93.9009C133.766 93.4373 133.464 92.8826 133.25 92.2368C133.042 91.5858 132.938 90.8618 132.938 90.0649V88.9321C132.938 88.1353 133.042 87.4139 133.25 86.7681C133.464 86.117 133.768 85.5597 134.164 85.0962C134.565 84.6326 135.047 84.2759 135.609 84.0259C136.172 83.7759 136.805 83.6509 137.508 83.6509C138.367 83.6509 139.094 83.8123 139.688 84.1353C140.281 84.4582 140.742 84.9061 141.07 85.479C141.404 86.0467 141.609 86.7056 141.688 87.4556H140.188C140.115 86.9243 139.979 86.4686 139.781 86.0884C139.583 85.703 139.302 85.4061 138.938 85.1978C138.573 84.9894 138.096 84.8853 137.508 84.8853C137.003 84.8853 136.557 84.9816 136.172 85.1743C135.792 85.367 135.471 85.6405 135.211 85.9946C134.956 86.3488 134.763 86.7733 134.633 87.2681C134.503 87.7629 134.438 88.3123 134.438 88.9165V90.0649C134.438 90.6222 134.495 91.1457 134.609 91.6353C134.729 92.1248 134.909 92.5545 135.148 92.9243C135.388 93.2941 135.693 93.5858 136.062 93.7993C136.432 94.0076 136.87 94.1118 137.375 94.1118C138.016 94.1118 138.526 94.0103 138.906 93.8071C139.286 93.604 139.573 93.3123 139.766 92.9321C139.964 92.5519 140.104 92.0962 140.188 91.5649ZM143.141 91.0493V90.8696C143.141 90.2603 143.229 89.6951 143.406 89.1743C143.583 88.6483 143.839 88.1925 144.172 87.8071C144.505 87.4165 144.909 87.1144 145.383 86.9009C145.857 86.6821 146.388 86.5728 146.977 86.5728C147.57 86.5728 148.104 86.6821 148.578 86.9009C149.057 87.1144 149.464 87.4165 149.797 87.8071C150.135 88.1925 150.393 88.6483 150.57 89.1743C150.747 89.6951 150.836 90.2603 150.836 90.8696V91.0493C150.836 91.6587 150.747 92.2238 150.57 92.7446C150.393 93.2655 150.135 93.7212 149.797 94.1118C149.464 94.4972 149.06 94.7993 148.586 95.0181C148.117 95.2316 147.586 95.3384 146.992 95.3384C146.398 95.3384 145.865 95.2316 145.391 95.0181C144.917 94.7993 144.51 94.4972 144.172 94.1118C143.839 93.7212 143.583 93.2655 143.406 92.7446C143.229 92.2238 143.141 91.6587 143.141 91.0493ZM144.586 90.8696V91.0493C144.586 91.4712 144.635 91.8696 144.734 92.2446C144.833 92.6144 144.982 92.9425 145.18 93.229C145.383 93.5155 145.635 93.742 145.938 93.9087C146.24 94.0701 146.591 94.1509 146.992 94.1509C147.388 94.1509 147.734 94.0701 148.031 93.9087C148.333 93.742 148.583 93.5155 148.781 93.229C148.979 92.9425 149.128 92.6144 149.227 92.2446C149.331 91.8696 149.383 91.4712 149.383 91.0493V90.8696C149.383 90.453 149.331 90.0597 149.227 89.6899C149.128 89.3149 148.977 88.9842 148.773 88.6978C148.576 88.4061 148.326 88.1769 148.023 88.0103C147.727 87.8436 147.378 87.7603 146.977 87.7603C146.581 87.7603 146.232 87.8436 145.93 88.0103C145.633 88.1769 145.383 88.4061 145.18 88.6978C144.982 88.9842 144.833 89.3149 144.734 89.6899C144.635 90.0597 144.586 90.453 144.586 90.8696ZM154.086 88.4087V95.1821H152.633V86.729H154.008L154.086 88.4087ZM153.789 90.6353L153.117 90.6118C153.122 90.0337 153.198 89.4998 153.344 89.0103C153.49 88.5155 153.706 88.0858 153.992 87.7212C154.279 87.3566 154.635 87.0754 155.062 86.8774C155.49 86.6743 155.984 86.5728 156.547 86.5728C156.943 86.5728 157.307 86.63 157.641 86.7446C157.974 86.854 158.263 87.0285 158.508 87.2681C158.753 87.5076 158.943 87.8149 159.078 88.1899C159.214 88.5649 159.281 89.0181 159.281 89.5493V95.1821H157.836V89.6196C157.836 89.1769 157.76 88.8228 157.609 88.5571C157.464 88.2915 157.255 88.0988 156.984 87.979C156.714 87.854 156.396 87.7915 156.031 87.7915C155.604 87.7915 155.247 87.867 154.961 88.0181C154.674 88.1691 154.445 88.3774 154.273 88.6431C154.102 88.9087 153.977 89.2134 153.898 89.5571C153.826 89.8957 153.789 90.255 153.789 90.6353ZM159.266 89.8384L158.297 90.1353C158.302 89.6717 158.378 89.2264 158.523 88.7993C158.674 88.3722 158.891 87.992 159.172 87.6587C159.458 87.3254 159.81 87.0623 160.227 86.8696C160.643 86.6717 161.12 86.5728 161.656 86.5728C162.109 86.5728 162.51 86.6326 162.859 86.7524C163.214 86.8722 163.51 87.0571 163.75 87.3071C163.995 87.5519 164.18 87.867 164.305 88.2524C164.43 88.6379 164.492 89.0962 164.492 89.6274V95.1821H163.039V89.6118C163.039 89.1379 162.964 88.7707 162.812 88.5103C162.667 88.2446 162.458 88.0597 162.188 87.9556C161.922 87.8462 161.604 87.7915 161.234 87.7915C160.917 87.7915 160.635 87.8462 160.391 87.9556C160.146 88.0649 159.94 88.216 159.773 88.4087C159.607 88.5962 159.479 88.8123 159.391 89.0571C159.307 89.3019 159.266 89.5623 159.266 89.8384ZM168.125 88.354V98.4321H166.672V86.729H168L168.125 88.354ZM173.82 90.8853V91.0493C173.82 91.6639 173.747 92.2342 173.602 92.7603C173.456 93.2811 173.242 93.7342 172.961 94.1196C172.685 94.505 172.344 94.8045 171.938 95.0181C171.531 95.2316 171.065 95.3384 170.539 95.3384C170.003 95.3384 169.529 95.2498 169.117 95.0728C168.706 94.8957 168.357 94.6379 168.07 94.2993C167.784 93.9608 167.555 93.5545 167.383 93.0806C167.216 92.6066 167.102 92.0728 167.039 91.479V90.604C167.102 89.979 167.219 89.4191 167.391 88.9243C167.562 88.4295 167.789 88.0076 168.07 87.6587C168.357 87.3045 168.703 87.0363 169.109 86.854C169.516 86.6665 169.984 86.5728 170.516 86.5728C171.047 86.5728 171.518 86.6769 171.93 86.8853C172.341 87.0884 172.688 87.38 172.969 87.7603C173.25 88.1405 173.461 88.5962 173.602 89.1274C173.747 89.6535 173.82 90.2394 173.82 90.8853ZM172.367 91.0493V90.8853C172.367 90.4634 172.323 90.0675 172.234 89.6978C172.146 89.3228 172.008 88.9946 171.82 88.7134C171.638 88.4269 171.404 88.203 171.117 88.0415C170.831 87.8748 170.49 87.7915 170.094 87.7915C169.729 87.7915 169.411 87.854 169.141 87.979C168.875 88.104 168.648 88.2733 168.461 88.4868C168.273 88.6951 168.12 88.9347 168 89.2056C167.885 89.4712 167.799 89.7472 167.742 90.0337V92.0571C167.846 92.4217 167.992 92.7655 168.18 93.0884C168.367 93.4061 168.617 93.6639 168.93 93.8618C169.242 94.0545 169.635 94.1509 170.109 94.1509C170.5 94.1509 170.836 94.0701 171.117 93.9087C171.404 93.742 171.638 93.5155 171.82 93.229C172.008 92.9425 172.146 92.6144 172.234 92.2446C172.323 91.8696 172.367 91.4712 172.367 91.0493ZM180.648 93.7368V89.3853C180.648 89.0519 180.581 88.7629 180.445 88.5181C180.315 88.2681 180.117 88.0754 179.852 87.9399C179.586 87.8045 179.258 87.7368 178.867 87.7368C178.503 87.7368 178.182 87.7993 177.906 87.9243C177.635 88.0493 177.422 88.2134 177.266 88.4165C177.115 88.6196 177.039 88.8384 177.039 89.0728H175.594C175.594 88.7707 175.672 88.4712 175.828 88.1743C175.984 87.8774 176.208 87.6092 176.5 87.3696C176.797 87.1248 177.151 86.9321 177.562 86.7915C177.979 86.6457 178.443 86.5728 178.953 86.5728C179.568 86.5728 180.109 86.6769 180.578 86.8853C181.052 87.0936 181.422 87.4087 181.688 87.8306C181.958 88.2472 182.094 88.7707 182.094 89.4009V93.3384C182.094 93.6196 182.117 93.9191 182.164 94.2368C182.216 94.5545 182.292 94.828 182.391 95.0571V95.1821H180.883C180.81 95.0155 180.753 94.7941 180.711 94.5181C180.669 94.2368 180.648 93.9764 180.648 93.7368ZM180.898 90.0571L180.914 91.0728H179.453C179.042 91.0728 178.674 91.1066 178.352 91.1743C178.029 91.2368 177.758 91.3332 177.539 91.4634C177.32 91.5936 177.154 91.7576 177.039 91.9556C176.924 92.1483 176.867 92.3748 176.867 92.6353C176.867 92.9009 176.927 93.1431 177.047 93.3618C177.167 93.5806 177.346 93.755 177.586 93.8853C177.831 94.0103 178.13 94.0728 178.484 94.0728C178.927 94.0728 179.318 93.979 179.656 93.7915C179.995 93.604 180.263 93.3748 180.461 93.104C180.664 92.8332 180.773 92.5701 180.789 92.3149L181.406 93.0103C181.37 93.229 181.271 93.4712 181.109 93.7368C180.948 94.0024 180.732 94.2576 180.461 94.5024C180.195 94.742 179.878 94.9425 179.508 95.104C179.143 95.2603 178.732 95.3384 178.273 95.3384C177.701 95.3384 177.198 95.2264 176.766 95.0024C176.339 94.7785 176.005 94.479 175.766 94.104C175.531 93.7238 175.414 93.2993 175.414 92.8306C175.414 92.3774 175.503 91.979 175.68 91.6353C175.857 91.2863 176.112 90.9972 176.445 90.7681C176.779 90.5337 177.18 90.3566 177.648 90.2368C178.117 90.117 178.641 90.0571 179.219 90.0571H180.898ZM185.812 88.5337V95.1821H184.367V86.729H185.734L185.812 88.5337ZM185.469 90.6353L184.867 90.6118C184.872 90.0337 184.958 89.4998 185.125 89.0103C185.292 88.5155 185.526 88.0858 185.828 87.7212C186.13 87.3566 186.49 87.0754 186.906 86.8774C187.328 86.6743 187.794 86.5728 188.305 86.5728C188.721 86.5728 189.096 86.63 189.43 86.7446C189.763 86.854 190.047 87.0311 190.281 87.2759C190.521 87.5207 190.703 87.8384 190.828 88.229C190.953 88.6144 191.016 89.0858 191.016 89.6431V95.1821H189.562V89.6274C189.562 89.1847 189.497 88.8306 189.367 88.5649C189.237 88.2941 189.047 88.0988 188.797 87.979C188.547 87.854 188.24 87.7915 187.875 87.7915C187.516 87.7915 187.188 87.867 186.891 88.0181C186.599 88.1691 186.346 88.3774 186.133 88.6431C185.924 88.9087 185.76 89.2134 185.641 89.5571C185.526 89.8957 185.469 90.255 185.469 90.6353ZM194.781 86.729V95.1821H193.328V86.729H194.781ZM193.219 84.4868C193.219 84.2524 193.289 84.0545 193.43 83.8931C193.576 83.7316 193.789 83.6509 194.07 83.6509C194.346 83.6509 194.557 83.7316 194.703 83.8931C194.854 84.0545 194.93 84.2524 194.93 84.4868C194.93 84.7108 194.854 84.9035 194.703 85.0649C194.557 85.2212 194.346 85.2993 194.07 85.2993C193.789 85.2993 193.576 85.2212 193.43 85.0649C193.289 84.9035 193.219 84.7108 193.219 84.4868ZM200.609 95.3384C200.021 95.3384 199.487 95.2394 199.008 95.0415C198.534 94.8384 198.125 94.5545 197.781 94.1899C197.443 93.8254 197.182 93.3931 197 92.8931C196.818 92.3931 196.727 91.8462 196.727 91.2524V90.9243C196.727 90.2368 196.828 89.6248 197.031 89.0884C197.234 88.5467 197.51 88.0884 197.859 87.7134C198.208 87.3384 198.604 87.0545 199.047 86.8618C199.49 86.6691 199.948 86.5728 200.422 86.5728C201.026 86.5728 201.547 86.6769 201.984 86.8853C202.427 87.0936 202.789 87.3853 203.07 87.7603C203.352 88.13 203.56 88.5675 203.695 89.0728C203.831 89.5728 203.898 90.1196 203.898 90.7134V91.3618H197.586V90.1821H202.453V90.0728C202.432 89.6978 202.354 89.3332 202.219 88.979C202.089 88.6248 201.88 88.3332 201.594 88.104C201.307 87.8748 200.917 87.7603 200.422 87.7603C200.094 87.7603 199.792 87.8306 199.516 87.9712C199.24 88.1066 199.003 88.3097 198.805 88.5806C198.607 88.8514 198.453 89.1821 198.344 89.5728C198.234 89.9634 198.18 90.4139 198.18 90.9243V91.2524C198.18 91.6535 198.234 92.0311 198.344 92.3853C198.458 92.7342 198.622 93.0415 198.836 93.3071C199.055 93.5728 199.318 93.7811 199.625 93.9321C199.938 94.0832 200.292 94.1587 200.688 94.1587C201.198 94.1587 201.63 94.0545 201.984 93.8462C202.339 93.6379 202.648 93.3592 202.914 93.0103L203.789 93.7056C203.607 93.9816 203.375 94.2446 203.094 94.4946C202.812 94.7446 202.466 94.9478 202.055 95.104C201.648 95.2603 201.167 95.3384 200.609 95.3384ZM210.508 92.9399C210.508 92.7316 210.461 92.5389 210.367 92.3618C210.279 92.1795 210.094 92.0155 209.812 91.8696C209.536 91.7186 209.12 91.5884 208.562 91.479C208.094 91.38 207.669 91.2629 207.289 91.1274C206.914 90.992 206.594 90.828 206.328 90.6353C206.068 90.4425 205.867 90.216 205.727 89.9556C205.586 89.6951 205.516 89.3905 205.516 89.0415C205.516 88.7082 205.589 88.3931 205.734 88.0962C205.885 87.7993 206.096 87.5363 206.367 87.3071C206.643 87.078 206.974 86.8983 207.359 86.7681C207.745 86.6379 208.174 86.5728 208.648 86.5728C209.326 86.5728 209.904 86.6925 210.383 86.9321C210.862 87.1717 211.229 87.492 211.484 87.8931C211.74 88.2889 211.867 88.729 211.867 89.2134H210.422C210.422 88.979 210.352 88.7524 210.211 88.5337C210.076 88.3097 209.875 88.1248 209.609 87.979C209.349 87.8332 209.029 87.7603 208.648 87.7603C208.247 87.7603 207.922 87.8228 207.672 87.9478C207.427 88.0675 207.247 88.2212 207.133 88.4087C207.023 88.5962 206.969 88.7941 206.969 89.0024C206.969 89.1587 206.995 89.2993 207.047 89.4243C207.104 89.5441 207.203 89.6561 207.344 89.7603C207.484 89.8592 207.682 89.953 207.938 90.0415C208.193 90.13 208.518 90.2186 208.914 90.3071C209.607 90.4634 210.177 90.6509 210.625 90.8696C211.073 91.0884 211.406 91.3566 211.625 91.6743C211.844 91.992 211.953 92.3774 211.953 92.8306C211.953 93.2004 211.875 93.5389 211.719 93.8462C211.568 94.1535 211.346 94.4191 211.055 94.6431C210.768 94.8618 210.424 95.0337 210.023 95.1587C209.628 95.2785 209.182 95.3384 208.688 95.3384C207.943 95.3384 207.312 95.2056 206.797 94.9399C206.281 94.6743 205.891 94.3306 205.625 93.9087C205.359 93.4868 205.227 93.0415 205.227 92.5728H206.68C206.701 92.9686 206.815 93.2837 207.023 93.5181C207.232 93.7472 207.487 93.9113 207.789 94.0103C208.091 94.104 208.391 94.1509 208.688 94.1509C209.083 94.1509 209.414 94.0988 209.68 93.9946C209.951 93.8905 210.156 93.7472 210.297 93.5649C210.438 93.3826 210.508 93.1743 210.508 92.9399ZM222.812 91.8618V83.8071H224.312V91.8618C224.312 92.6118 224.159 93.2446 223.852 93.7603C223.544 94.2759 223.12 94.6691 222.578 94.9399C222.042 95.2056 221.424 95.3384 220.727 95.3384C220.029 95.3384 219.409 95.2186 218.867 94.979C218.326 94.7394 217.901 94.3748 217.594 93.8853C217.286 93.3957 217.133 92.7785 217.133 92.0337H218.641C218.641 92.5129 218.729 92.9061 218.906 93.2134C219.083 93.5207 219.328 93.7472 219.641 93.8931C219.958 94.0389 220.32 94.1118 220.727 94.1118C221.122 94.1118 221.477 94.0285 221.789 93.8618C222.107 93.6899 222.357 93.4373 222.539 93.104C222.721 92.7655 222.812 92.3514 222.812 91.8618ZM226.266 91.0493V90.8696C226.266 90.2603 226.354 89.6951 226.531 89.1743C226.708 88.6483 226.964 88.1925 227.297 87.8071C227.63 87.4165 228.034 87.1144 228.508 86.9009C228.982 86.6821 229.513 86.5728 230.102 86.5728C230.695 86.5728 231.229 86.6821 231.703 86.9009C232.182 87.1144 232.589 87.4165 232.922 87.8071C233.26 88.1925 233.518 88.6483 233.695 89.1743C233.872 89.6951 233.961 90.2603 233.961 90.8696V91.0493C233.961 91.6587 233.872 92.2238 233.695 92.7446C233.518 93.2655 233.26 93.7212 232.922 94.1118C232.589 94.4972 232.185 94.7993 231.711 95.0181C231.242 95.2316 230.711 95.3384 230.117 95.3384C229.523 95.3384 228.99 95.2316 228.516 95.0181C228.042 94.7993 227.635 94.4972 227.297 94.1118C226.964 93.7212 226.708 93.2655 226.531 92.7446C226.354 92.2238 226.266 91.6587 226.266 91.0493ZM227.711 90.8696V91.0493C227.711 91.4712 227.76 91.8696 227.859 92.2446C227.958 92.6144 228.107 92.9425 228.305 93.229C228.508 93.5155 228.76 93.742 229.062 93.9087C229.365 94.0701 229.716 94.1509 230.117 94.1509C230.513 94.1509 230.859 94.0701 231.156 93.9087C231.458 93.742 231.708 93.5155 231.906 93.229C232.104 92.9425 232.253 92.6144 232.352 92.2446C232.456 91.8696 232.508 91.4712 232.508 91.0493V90.8696C232.508 90.453 232.456 90.0597 232.352 89.6899C232.253 89.3149 232.102 88.9842 231.898 88.6978C231.701 88.4061 231.451 88.1769 231.148 88.0103C230.852 87.8436 230.503 87.7603 230.102 87.7603C229.706 87.7603 229.357 87.8436 229.055 88.0103C228.758 88.1769 228.508 88.4061 228.305 88.6978C228.107 88.9842 227.958 89.3149 227.859 89.6899C227.76 90.0597 227.711 90.453 227.711 90.8696ZM237.344 86.729V95.1821H235.891V86.729H237.344ZM235.781 84.4868C235.781 84.2524 235.852 84.0545 235.992 83.8931C236.138 83.7316 236.352 83.6509 236.633 83.6509C236.909 83.6509 237.12 83.7316 237.266 83.8931C237.417 84.0545 237.492 84.2524 237.492 84.4868C237.492 84.7108 237.417 84.9035 237.266 85.0649C237.12 85.2212 236.909 85.2993 236.633 85.2993C236.352 85.2993 236.138 85.2212 235.992 85.0649C235.852 84.9035 235.781 84.7108 235.781 84.4868ZM241.109 88.5337V95.1821H239.664V86.729H241.031L241.109 88.5337ZM240.766 90.6353L240.164 90.6118C240.169 90.0337 240.255 89.4998 240.422 89.0103C240.589 88.5155 240.823 88.0858 241.125 87.7212C241.427 87.3566 241.786 87.0754 242.203 86.8774C242.625 86.6743 243.091 86.5728 243.602 86.5728C244.018 86.5728 244.393 86.63 244.727 86.7446C245.06 86.854 245.344 87.0311 245.578 87.2759C245.818 87.5207 246 87.8384 246.125 88.229C246.25 88.6144 246.312 89.0858 246.312 89.6431V95.1821H244.859V89.6274C244.859 89.1847 244.794 88.8306 244.664 88.5649C244.534 88.2941 244.344 88.0988 244.094 87.979C243.844 87.854 243.536 87.7915 243.172 87.7915C242.812 87.7915 242.484 87.867 242.188 88.0181C241.896 88.1691 241.643 88.3774 241.43 88.6431C241.221 88.9087 241.057 89.2134 240.938 89.5571C240.823 89.8957 240.766 90.255 240.766 90.6353ZM252.016 95.3384C251.427 95.3384 250.893 95.2394 250.414 95.0415C249.94 94.8384 249.531 94.5545 249.188 94.1899C248.849 93.8254 248.589 93.3931 248.406 92.8931C248.224 92.3931 248.133 91.8462 248.133 91.2524V90.9243C248.133 90.2368 248.234 89.6248 248.438 89.0884C248.641 88.5467 248.917 88.0884 249.266 87.7134C249.615 87.3384 250.01 87.0545 250.453 86.8618C250.896 86.6691 251.354 86.5728 251.828 86.5728C252.432 86.5728 252.953 86.6769 253.391 86.8853C253.833 87.0936 254.195 87.3853 254.477 87.7603C254.758 88.13 254.966 88.5675 255.102 89.0728C255.237 89.5728 255.305 90.1196 255.305 90.7134V91.3618H248.992V90.1821H253.859V90.0728C253.839 89.6978 253.76 89.3332 253.625 88.979C253.495 88.6248 253.286 88.3332 253 88.104C252.714 87.8748 252.323 87.7603 251.828 87.7603C251.5 87.7603 251.198 87.8306 250.922 87.9712C250.646 88.1066 250.409 88.3097 250.211 88.5806C250.013 88.8514 249.859 89.1821 249.75 89.5728C249.641 89.9634 249.586 90.4139 249.586 90.9243V91.2524C249.586 91.6535 249.641 92.0311 249.75 92.3853C249.865 92.7342 250.029 93.0415 250.242 93.3071C250.461 93.5728 250.724 93.7811 251.031 93.9321C251.344 94.0832 251.698 94.1587 252.094 94.1587C252.604 94.1587 253.036 94.0545 253.391 93.8462C253.745 93.6379 254.055 93.3592 254.32 93.0103L255.195 93.7056C255.013 93.9816 254.781 94.2446 254.5 94.4946C254.219 94.7446 253.872 94.9478 253.461 95.104C253.055 95.2603 252.573 95.3384 252.016 95.3384ZM262.32 93.5415V83.1821H263.773V95.1821H262.445L262.32 93.5415ZM256.633 91.0493V90.8853C256.633 90.2394 256.711 89.6535 256.867 89.1274C257.029 88.5962 257.255 88.1405 257.547 87.7603C257.844 87.38 258.195 87.0884 258.602 86.8853C259.013 86.6769 259.471 86.5728 259.977 86.5728C260.508 86.5728 260.971 86.6665 261.367 86.854C261.768 87.0363 262.107 87.3045 262.383 87.6587C262.664 88.0076 262.885 88.4295 263.047 88.9243C263.208 89.4191 263.32 89.979 263.383 90.604V91.3228C263.326 91.9425 263.214 92.4998 263.047 92.9946C262.885 93.4894 262.664 93.9113 262.383 94.2603C262.107 94.6092 261.768 94.8774 261.367 95.0649C260.966 95.2472 260.497 95.3384 259.961 95.3384C259.466 95.3384 259.013 95.2316 258.602 95.0181C258.195 94.8045 257.844 94.505 257.547 94.1196C257.255 93.7342 257.029 93.2811 256.867 92.7603C256.711 92.2342 256.633 91.6639 256.633 91.0493ZM258.086 90.8853V91.0493C258.086 91.4712 258.128 91.867 258.211 92.2368C258.299 92.6066 258.435 92.9321 258.617 93.2134C258.799 93.4946 259.031 93.716 259.312 93.8774C259.594 94.0337 259.93 94.1118 260.32 94.1118C260.799 94.1118 261.193 94.0103 261.5 93.8071C261.812 93.604 262.062 93.3358 262.25 93.0024C262.438 92.6691 262.583 92.3071 262.688 91.9165V90.0337C262.625 89.7472 262.534 89.4712 262.414 89.2056C262.299 88.9347 262.148 88.6951 261.961 88.4868C261.779 88.2733 261.552 88.104 261.281 87.979C261.016 87.854 260.701 87.7915 260.336 87.7915C259.94 87.7915 259.599 87.8748 259.312 88.0415C259.031 88.203 258.799 88.4269 258.617 88.7134C258.435 88.9946 258.299 89.3228 258.211 89.6978C258.128 90.0675 258.086 90.4634 258.086 90.8853Z" fill="#AAAAAA"/>
<path d="M138.75 62.1592V75H136.632V64.6729L133.494 65.7363V63.9873L138.495 62.1592H138.75ZM145.685 67.6436H146.95C147.442 67.6436 147.85 67.5586 148.172 67.3887C148.5 67.2188 148.743 66.9844 148.901 66.6855C149.06 66.3867 149.139 66.0439 149.139 65.6572C149.139 65.2529 149.065 64.9072 148.919 64.6201C148.778 64.3271 148.562 64.1016 148.269 63.9434C147.981 63.7852 147.615 63.7061 147.17 63.7061C146.795 63.7061 146.455 63.7822 146.15 63.9346C145.852 64.0811 145.614 64.292 145.438 64.5674C145.263 64.8369 145.175 65.1592 145.175 65.5342H143.048C143.048 64.8545 143.227 64.251 143.584 63.7236C143.941 63.1963 144.428 62.7832 145.043 62.4844C145.664 62.1797 146.361 62.0273 147.135 62.0273C147.961 62.0273 148.682 62.165 149.297 62.4404C149.918 62.71 150.401 63.1143 150.747 63.6533C151.093 64.1924 151.266 64.8604 151.266 65.6572C151.266 66.0205 151.181 66.3896 151.011 66.7646C150.841 67.1396 150.589 67.4824 150.255 67.793C149.921 68.0977 149.505 68.3467 149.007 68.54C148.509 68.7275 147.932 68.8213 147.275 68.8213H145.685V67.6436ZM145.685 69.2959V68.1357H147.275C148.025 68.1357 148.664 68.2236 149.191 68.3994C149.725 68.5752 150.158 68.8184 150.492 69.1289C150.826 69.4336 151.069 69.7822 151.222 70.1748C151.38 70.5674 151.459 70.9834 151.459 71.4229C151.459 72.0205 151.351 72.5537 151.134 73.0225C150.923 73.4854 150.621 73.8779 150.229 74.2002C149.836 74.5225 149.376 74.7656 148.849 74.9297C148.327 75.0938 147.759 75.1758 147.144 75.1758C146.593 75.1758 146.065 75.0996 145.562 74.9473C145.058 74.7949 144.606 74.5693 144.208 74.2705C143.81 73.9658 143.493 73.5879 143.259 73.1367C143.03 72.6797 142.916 72.1523 142.916 71.5547H145.034C145.034 71.9355 145.122 72.2725 145.298 72.5654C145.479 72.8525 145.731 73.0781 146.054 73.2422C146.382 73.4062 146.757 73.4883 147.179 73.4883C147.624 73.4883 148.008 73.4092 148.33 73.251C148.652 73.0928 148.898 72.8584 149.068 72.5479C149.244 72.2373 149.332 71.8623 149.332 71.4229C149.332 70.9248 149.235 70.5205 149.042 70.21C148.849 69.8994 148.573 69.6709 148.216 69.5244C147.858 69.3721 147.437 69.2959 146.95 69.2959H145.685ZM155.651 69.0498L153.964 68.6367L154.658 62.2031H161.558V63.9961H156.416L156.064 67.1338C156.264 67.0166 156.539 66.9023 156.891 66.791C157.242 66.6738 157.644 66.6152 158.095 66.6152C158.698 66.6152 159.237 66.7148 159.712 66.9141C160.192 67.1074 160.6 67.3916 160.934 67.7666C161.268 68.1357 161.522 68.5869 161.698 69.1201C161.874 69.6475 161.962 70.2422 161.962 70.9043C161.962 71.4961 161.874 72.0498 161.698 72.5654C161.528 73.0811 161.271 73.5352 160.925 73.9277C160.579 74.3203 160.143 74.6279 159.615 74.8506C159.094 75.0674 158.476 75.1758 157.761 75.1758C157.228 75.1758 156.715 75.0996 156.223 74.9473C155.736 74.7891 155.3 74.5576 154.913 74.2529C154.526 73.9424 154.216 73.5615 153.981 73.1104C153.747 72.6533 153.612 72.1289 153.577 71.5371H155.651C155.704 71.9531 155.818 72.3076 155.994 72.6006C156.176 72.8877 156.416 73.1074 156.715 73.2598C157.014 73.4121 157.359 73.4883 157.752 73.4883C158.109 73.4883 158.417 73.4268 158.675 73.3037C158.933 73.1748 159.146 72.9932 159.316 72.7588C159.492 72.5186 159.621 72.2373 159.703 71.915C159.791 71.5928 159.835 71.2354 159.835 70.8428C159.835 70.4678 159.785 70.125 159.686 69.8145C159.592 69.5039 159.448 69.2344 159.255 69.0059C159.067 68.7773 158.83 68.6016 158.543 68.4785C158.256 68.3496 157.925 68.2852 157.55 68.2852C157.046 68.2852 156.659 68.3584 156.39 68.5049C156.126 68.6514 155.88 68.833 155.651 69.0498Z" fill="#1B1D21"/>
<defs>
<filter id="filter0_d_3_1383" x="0" y="0" width="383" height="220" filterUnits="userSpaceOnUse" color-interpolation-filters="sRGB">
<feFlood flood-opacity="0" result="BackgroundImageFix"/>
<feColorMatrix in="SourceAlpha" type="matrix" values="0 0 0 0 0 0 0 0 0 0 0 0 0 0 0 0 0 0 127 0" result="hardAlpha"/>
<feOffset dx="10" dy="32"/>
<feGaussianBlur stdDeviation="36"/>
<feColorMatrix type="matrix" values="0 0 0 0 0.2 0 0 0 0 0.2 0 0 0 0 0.2 0 0 0 0.1 0"/>
<feBlend mode="normal" in2="BackgroundImageFix" result="effect1_dropShadow_3_1383"/>
<feBlend mode="normal" in="SourceGraphic" in2="effect1_dropShadow_3_1383" result="shape"/>
</filter>
<clipPath id="clip0_3_1383">
<rect width="42" height="42" fill="white" transform="matrix(-1 0 0 1 117 57)"/>
</clipPath>
</defs>
</svg>