<svg width="47" height="42" viewBox="0 0 47 42" fill="none" xmlns="http://www.w3.org/2000/svg">
<g clip-path="url(#clip0_54_80)">
<rect opacity="0.4" width="43" height="42" rx="21" transform="matrix(-1 0 0 1 47 -0.0598145)" fill="#00C49A"/>
<path d="M19.1584 17.5885C20.3247 16.0943 21.0527 14.3798 21.3448 12.4388C21.3726 12.2539 21.5178 12.1001 21.7171 12.0445C23.7256 11.4842 24.8675 12.3746 24.8486 14.405C24.8449 14.7991 24.8248 15.1495 24.7818 15.6852C24.6859 16.882 24.6935 17.2086 24.8421 17.4284C24.985 17.6396 25.4488 17.7117 26.5458 17.524C26.8919 17.4647 27.2391 17.3976 27.6237 17.3169C27.7935 17.2813 29.0164 17.0123 29.329 16.9515C29.9252 16.8354 30.3531 16.7863 30.7293 16.8071C31.7485 16.8634 32.2893 17.455 32.3828 18.5884C32.5473 20.5844 32.0388 24.5935 31.5315 26.0703C31.0131 27.5793 30.109 28.1489 27.9388 28.1833C26.5435 28.2054 24.3975 28.2054 21.4908 28.1832C20.7488 28.1677 20.0764 28.0382 19.4782 27.796C19.6461 27.4826 19.7402 27.1315 19.7402 26.7608V19.0803C19.7402 18.5165 19.5226 17.9981 19.1584 17.5885Z" fill="black"/>
<path d="M15.9801 17.6399C15.0901 17.6399 14.3687 18.2846 14.3687 19.0799V26.7599C14.3687 27.5552 15.0901 28.1999 15.9801 28.1999H17.0544C17.9443 28.1999 18.6658 27.5552 18.6658 26.7599V19.0799C18.6658 18.2846 17.9443 17.6399 17.0544 17.6399H15.9801Z" fill="black"/>
</g>
<defs>
<clipPath id="clip0_54_80">
<rect width="47" height="42" fill="white" transform="matrix(-1 0 0 1 47 0)"/>
</clipPath>
</defs>
</svg>
