<svg width="34" height="34" viewBox="0 0 34 34" fill="none" xmlns="http://www.w3.org/2000/svg">
<circle cx="17" cy="17" r="17" fill="#384455"/>
<path fill-rule="evenodd" clip-rule="evenodd" d="M13.6113 22.0962C12.0939 22.1479 10.8198 20.9637 10.7605 19.4466L10.7604 16.6885C10.8194 15.1711 12.0935 13.9863 13.6113 14.0378L14.178 14.0375C14.3804 14.0375 14.5675 14.1454 14.6688 14.3208C14.77 14.4963 14.77 14.7121 14.6688 14.8875C14.5675 15.0629 14.3804 15.1708 14.178 15.1708H13.6113C12.7413 15.141 12.0108 15.82 11.9771 16.6899V19.4482C12.0116 20.3176 12.7417 20.9961 13.6113 20.9667H20.3842C21.254 20.9961 21.9841 20.3171 22.0179 19.4474V16.6832C21.984 15.8172 21.2571 15.1412 20.391 15.1703H19.8175C19.6151 15.1703 19.428 15.0624 19.3267 14.887C19.2255 14.7115 19.2255 14.4957 19.3267 14.3203C19.428 14.1449 19.6151 14.037 19.8175 14.037H20.391C21.9049 13.9863 23.1755 15.1681 23.2345 16.6816L23.2345 19.4457C23.1757 20.9629 21.9016 22.1474 20.3842 22.0954L13.6113 22.0962ZM16.388 18.1375V12.1308L15.6542 12.8165C15.4075 13.0312 15.0402 13.0312 14.7934 12.8165C14.6801 12.7146 14.6153 12.5694 14.6153 12.4169C14.6153 12.2645 14.6801 12.1192 14.7934 12.0174L16.5677 10.3611C16.8184 10.1555 17.1794 10.1555 17.4301 10.3611L19.2043 12.0174C19.3175 12.1195 19.3821 12.2645 19.3821 12.4169C19.3821 12.5694 19.3175 12.7144 19.2043 12.8165C18.9597 13.0373 18.5876 13.0373 18.343 12.8165L17.6063 12.1308V18.1375H16.388Z" fill="white"/>
</svg>