<svg width="44" height="44" viewBox="0 0 44 44" fill="none" xmlns="http://www.w3.org/2000/svg">
<g clip-path="url(#clip0_1047_1048)">
<rect width="44" height="44" rx="22" fill="#FFBC99"/>
<g clip-path="url(#clip1_1047_1048)">
<path d="M29.3161 25.4377C29.2716 25.2353 29.1723 25.0489 29.0291 24.899C28.8859 24.749 28.7043 24.6413 28.5041 24.5874L24.6509 23.6145L22.0004 25.6063L19.3499 23.6145L15.4967 24.5874C15.2965 24.6413 15.1149 24.749 14.9717 24.899C14.8285 25.0489 14.7293 25.2353 14.6847 25.4377L14.5162 29.4442C14.5132 29.4996 14.5218 29.5551 14.5415 29.607C14.5611 29.659 14.5913 29.7063 14.6303 29.7459C14.6692 29.7855 14.7159 29.8166 14.7675 29.8372C14.819 29.8578 14.8743 29.8674 14.9298 29.8655L22.0004 29.7965L29.071 29.8655C29.1265 29.8674 29.1818 29.8578 29.2333 29.8372C29.2849 29.8166 29.3316 29.7855 29.3706 29.7459C29.4095 29.7063 29.4397 29.659 29.4593 29.607C29.479 29.5551 29.4876 29.4996 29.4846 29.4442L29.3161 25.4377Z" fill="#3B4551"/>
<path d="M21.5973 22.6293C21.7277 22.6376 22.3472 22.6401 22.5109 22.6189C24.3364 22.3832 25.3485 19.1793 25.3485 17.4824C25.3485 16.5944 24.9958 15.7428 24.3679 15.115C23.74 14.4871 22.8884 14.1343 22.0004 14.1343C21.1125 14.1343 20.2609 14.4871 19.633 15.115C19.0051 15.7428 18.6523 16.5944 18.6523 17.4824C18.6523 19.2122 19.7042 22.5082 21.5973 22.6293Z" fill="#3B4551"/>
</g>
</g>
<defs>
<clipPath id="clip0_1047_1048">
<rect width="44" height="44" rx="22" fill="white"/>
</clipPath>
<clipPath id="clip1_1047_1048">
<rect width="16" height="16" fill="white" transform="translate(14 14)"/>
</clipPath>
</defs>
</svg>
