<svg width="36" height="36" viewBox="0 0 36 36" fill="none" xmlns="http://www.w3.org/2000/svg">
<rect width="36" height="36" rx="18" fill="#EFEFEF"/>
<path d="M13.5893 12.4107C13.2638 12.0853 12.7362 12.0853 12.4108 12.4107C12.0853 12.7362 12.0853 13.2638 12.4108 13.5893L16.8215 18L12.4108 22.4108C12.0854 22.7362 12.0854 23.2638 12.4108 23.5893C12.7362 23.9147 13.2639 23.9147 13.5893 23.5893L18 19.1785L22.4108 23.5893C22.7362 23.9147 23.2638 23.9147 23.5893 23.5893C23.9147 23.2638 23.9147 22.7362 23.5893 22.4108L19.1785 18L23.5893 13.5893C23.9147 13.2638 23.9147 12.7362 23.5893 12.4108C23.2639 12.0853 22.7362 12.0853 22.4108 12.4108L18 16.8215L13.5893 12.4107Z" fill="#33383F"/>
</svg>
