<svg width="30" height="31" viewBox="0 0 30 31" fill="none" xmlns="http://www.w3.org/2000/svg">
<path fill-rule="evenodd" clip-rule="evenodd" d="M2.87197 28.424C2.44314 27.6978 2.32738 26.8286 2.55111 26.0154C2.77486 25.2022 3.31899 24.5147 4.05898 24.11L25.124 12.268C26.671 11.3947 28.6318 11.9063 29.555 13.424C29.9838 14.1505 30.0996 15.0198 29.8759 15.8331C29.6521 16.6464 29.108 17.3342 28.368 17.7391L7.29995 29.579C6.80566 29.8571 6.24807 30.0031 5.68093 30.003C4.5317 30.0087 3.46441 29.4088 2.87197 28.424ZM0.438956 16.5821C0.0104284 15.8557 -0.105172 14.9867 0.118552 14.1736C0.342277 13.3605 0.886191 12.6729 1.62597 12.268L22.692 0.427021C24.2383 -0.446941 26.1992 0.0642893 27.122 1.58205C27.5508 2.30843 27.6666 3.17775 27.4429 3.99105C27.2191 4.8044 26.675 5.49215 25.935 5.89705L4.86996 17.738C4.37588 18.0156 3.81866 18.1613 3.25194 18.161C2.10125 18.1673 1.03231 17.567 0.438956 16.581V16.5821Z" fill="white"/>
</svg>
