<svg width="20" height="20" viewBox="0 0 20 20" fill="none" xmlns="http://www.w3.org/2000/svg">
<path fill-rule="evenodd" clip-rule="evenodd" d="M12 20C11.4477 20 11 19.5523 11 19V12C11 11.4477 11.4477 11 12 11H19C19.5523 11 20 11.4477 20 12V19C20 19.5523 19.5523 20 19 20H12ZM13 18H18V13H13V18ZM1 20C0.447693 20 0 19.5523 0 19V12C0 11.4477 0.447693 11 1 11H8C8.55231 11 9 11.4477 9 12V19C9 19.5523 8.55231 20 8 20H1ZM2 18H7V13H2V18ZM12 9C11.4477 9 11 8.55231 11 8V1C11 0.447693 11.4477 0 12 0H19C19.5523 0 20 0.447693 20 1V8C20 8.55231 19.5523 9 19 9H12ZM13 7H18V2H13V7ZM1 9C0.447693 9 0 8.55231 0 8V1C0 0.447693 0.447693 0 1 0H8C8.55231 0 9 0.447693 9 1V8C9 8.55231 8.55231 9 8 9H1ZM2 7H7V2H2V7Z" fill="#404345"/>
</svg>
