<svg width="10" height="13" viewBox="0 0 10 13" fill="none" xmlns="http://www.w3.org/2000/svg">
<path d="M9.33408 1.87319L8.12681 0.665916C7.91623 0.454178 7.66575 0.286302 7.38986 0.171999C7.11398 0.0576974 6.81817 -0.000760738 6.51954 7.47416e-06H2.27273C1.67018 0.000729227 1.09253 0.240408 0.666463 0.666471C0.240401 1.09253 0.000721753 1.67019 0 2.27273V10.4545C0.000721753 11.0571 0.240401 11.6347 0.666463 12.0608C1.09253 12.4869 1.67018 12.7265 2.27273 12.7273H7.72727C8.32981 12.7265 8.90747 12.4869 9.33353 12.0608C9.75959 11.6347 9.99927 11.0571 9.99999 10.4545V3.48046C10.0008 3.18183 9.9423 2.88602 9.828 2.61014C9.7137 2.33425 9.54582 2.08377 9.33408 1.87319ZM8.69136 2.51591C8.7556 2.58052 8.81331 2.65132 8.86363 2.72728H7.72727C7.60671 2.72728 7.4911 2.67939 7.40585 2.59414C7.32061 2.5089 7.27272 2.39329 7.27272 2.27273V1.13637C7.3487 1.18683 7.4195 1.24469 7.48409 1.3091L8.69136 2.51591ZM7.72727 11.8182H2.27273C1.91107 11.8182 1.56422 11.6745 1.30849 11.4188C1.05276 11.1631 0.90909 10.8162 0.90909 10.4545V2.27273C0.90909 1.91107 1.05276 1.56423 1.30849 1.3085C1.56422 1.05277 1.91107 0.909098 2.27273 0.909098H6.36363V2.27273C6.36363 2.63439 6.5073 2.98124 6.76303 3.23697C7.01876 3.4927 7.36561 3.63637 7.72727 3.63637H9.0909V10.4545C9.0909 10.8162 8.94723 11.1631 8.6915 11.4188C8.43577 11.6745 8.08893 11.8182 7.72727 11.8182V11.8182Z" fill="black"/>
<path d="M2.72798 4.09073H4.54616C4.66672 4.09073 4.78233 4.04284 4.86757 3.9576C4.95282 3.87235 5.00071 3.75674 5.00071 3.63619C5.00071 3.51563 4.95282 3.40002 4.86757 3.31477C4.78233 3.22953 4.66672 3.18164 4.54616 3.18164H2.72798C2.60743 3.18164 2.49181 3.22953 2.40657 3.31477C2.32133 3.40002 2.27344 3.51563 2.27344 3.63619C2.27344 3.75674 2.32133 3.87235 2.40657 3.9576C2.49181 4.04284 2.60743 4.09073 2.72798 4.09073V4.09073Z" fill="black"/>
<path d="M7.27343 5H2.72798C2.60743 5 2.49181 5.04789 2.40657 5.13313C2.32133 5.21838 2.27344 5.33399 2.27344 5.45455C2.27344 5.5751 2.32133 5.69071 2.40657 5.77596C2.49181 5.8612 2.60743 5.90909 2.72798 5.90909H7.27343C7.39399 5.90909 7.5096 5.8612 7.59485 5.77596C7.68009 5.69071 7.72798 5.5751 7.72798 5.45455C7.72798 5.33399 7.68009 5.21838 7.59485 5.13313C7.5096 5.04789 7.39399 5 7.27343 5Z" fill="black"/>
<path d="M7.27343 6.81836H2.72798C2.60743 6.81836 2.49181 6.86625 2.40657 6.95149C2.32133 7.03674 2.27344 7.15235 2.27344 7.2729C2.27344 7.39346 2.32133 7.50907 2.40657 7.59432C2.49181 7.67956 2.60743 7.72745 2.72798 7.72745H7.27343C7.39399 7.72745 7.5096 7.67956 7.59485 7.59432C7.68009 7.50907 7.72798 7.39346 7.72798 7.2729C7.72798 7.15235 7.68009 7.03674 7.59485 6.95149C7.5096 6.86625 7.39399 6.81836 7.27343 6.81836Z" fill="black"/>
<path d="M6.36434 8.63672H2.72798C2.60743 8.63672 2.49181 8.68461 2.40657 8.76985C2.32133 8.8551 2.27344 8.97071 2.27344 9.09126C2.27344 9.21182 2.32133 9.32743 2.40657 9.41268C2.49181 9.49792 2.60743 9.54581 2.72798 9.54581H6.36434C6.4849 9.54581 6.60051 9.49792 6.68576 9.41268C6.771 9.32743 6.81889 9.21182 6.81889 9.09126C6.81889 8.97071 6.771 8.8551 6.68576 8.76985C6.60051 8.68461 6.4849 8.63672 6.36434 8.63672Z" fill="black"/>
</svg>
