<svg width="148" height="30" viewBox="0 0 148 30" fill="none" xmlns="http://www.w3.org/2000/svg">
<path fill-rule="evenodd" clip-rule="evenodd" d="M8.27367 11.3078L0 6.0474L8.33215 0.75L16.6576 6.04341L24.9836 0.75L33.3154 6.0474L25.0417 11.3077L33.3155 16.5682L24.9835 21.8657L16.6577 16.5722L8.33203 21.8657L0 16.5682L8.27367 11.3078ZM16.6576 6.0514L24.9251 11.3078L16.6577 16.5642L8.39026 11.3077L16.6576 6.0514ZM104.699 21.3905C105.505 23.31 107.116 24.5032 109.585 24.5032C113.406 24.5032 115.901 21.7018 115.901 16.7216V16.2806C115.901 11.3004 113.25 8.83618 109.689 8.81024C107.324 8.81024 105.661 9.87373 104.829 11.8191V3.94035H101.008V24.1141H104.387L104.699 21.3905ZM111.976 16.7216C111.976 19.6786 110.599 21.1312 108.338 21.1312C106.18 21.1312 104.751 19.523 104.751 16.7216V16.4103C104.751 13.8424 106.232 12.1045 108.39 12.1045C110.469 12.1045 111.976 13.6089 111.976 16.3584V16.7216ZM125.284 24.5032C120.45 24.5032 117.695 21.8834 117.695 16.955V16.54C117.695 11.5079 120.918 8.81024 125.284 8.81024C129.755 8.81024 132.848 11.5597 132.848 16.54V16.955C132.848 21.8834 129.807 24.5032 125.284 24.5032ZM125.259 21.1052C127.437 21.1052 128.805 19.6267 128.805 16.9031V16.54C128.805 13.7386 127.437 12.1045 125.284 12.1045C123.156 12.1045 121.738 13.6349 121.738 16.54V16.9031C121.738 19.6008 123.08 21.1052 125.259 21.1052ZM137.889 16.3584L132.197 24.1141H136.772L140.125 19.1598L143.582 24.1141H148L142.386 16.3325L147.714 9.14744H143.244L140.177 13.6349L137.136 9.14744H132.639L137.889 16.3584ZM84.3325 29.25V9.14744H87.5176L87.9075 12.0007C88.7132 10.0812 90.0372 8.79598 92.5064 8.79598C96.327 8.79598 98.9059 11.5455 98.9059 16.5776V16.9926C98.9059 21.921 96.0412 24.4889 92.5064 24.4889C90.1152 24.4889 88.8691 23.4397 88.0634 21.7018V29.25H84.3325ZM91.264 21.1455C93.4993 21.1455 95.0125 19.667 95.0125 16.9175V16.5803C95.0125 13.5973 93.3953 12.1188 91.342 12.1188C89.1588 12.1188 87.9248 13.7905 87.9248 16.5659V16.8513C87.9248 19.497 89.1068 21.1455 91.264 21.1455ZM67.3107 16.919C67.3107 21.8474 69.9148 24.4672 74.7484 24.4672C79.4354 24.4672 82.1607 21.8474 82.1607 16.919V16.504C82.1607 11.5237 79.3099 8.77421 74.7484 8.77421C70.187 8.77421 67.3107 11.4718 67.3107 16.504V16.919ZM78.1986 16.8671C78.1986 19.5907 77.013 21.0692 74.7233 21.0692C72.4336 21.0692 71.2728 19.5647 71.2728 16.8671V16.504C71.2728 13.5988 72.5209 12.0684 74.7481 12.0684C76.9753 12.0684 78.1986 13.7026 78.1986 16.504V16.8671ZM61.0151 24.1141H57.1346V9.14744H60.3541L60.8479 12.6232C61.4457 10.2369 62.9792 9.01775 65.7602 9.01775H66.4776V12.9864H65.1105C61.8876 12.9864 61.0151 14.1017 61.0151 17.2663V24.1141ZM39.8471 5.76544V24.1141H46.8515C51.4779 24.1141 54.9607 21.4165 54.9607 15.4506V14.1796C54.9607 8.23958 51.27 5.76544 46.7475 5.76544H39.8471ZM43.7977 8.96587H46.5396C49.1647 8.96587 50.9581 10.6519 50.9581 14.3611V15.3209C50.9581 19.0301 49.2167 20.7161 46.6696 20.7161H43.7977V8.96587ZM16.7176 28.9188L8.38557 23.6213L16.7176 18.3243L25.0497 23.6213L16.7176 28.9188Z" fill="#545961"/>
</svg>
