<svg width="26" height="26" viewBox="0 0 26 26" fill="none" xmlns="http://www.w3.org/2000/svg">
<path fill-rule="evenodd" clip-rule="evenodd" d="M0 12V6C0 4.34315 0.585786 2.92893 1.75736 1.75736C2.92893 0.585786 4.34315 0 6 0H20C21.6569 0 23.0711 0.585786 24.2426 1.75736C25.4142 2.92893 26 4.34315 26 6V20C26 21.6569 25.4142 23.0711 24.2426 24.2426C23.0711 25.4142 21.6569 26 20 26H6C4.34315 26 2.92893 25.4142 1.75736 24.2426C0.585786 23.0711 0 21.6569 0 20V12Z" fill="#F1F5F7"/>
<path fill-rule="evenodd" clip-rule="evenodd" d="M14.328 15.95C14.142 16.2247 13.8318 16.3893 13.5 16.3893C13.1682 16.3893 12.858 16.2247 12.672 15.95L8.672 10.559C8.46472 10.2526 8.44373 9.85681 8.61707 9.53003C8.79053 9.20337 9.13 8.99902 9.49988 8.9989H17.5C17.87 8.99902 18.2095 9.20337 18.3829 9.53003C18.5563 9.85681 18.5353 10.2526 18.3281 10.559L14.328 15.95Z" fill="#809FB8"/>
</svg>
