<svg width="20" height="23" viewBox="0 0 20 23" fill="none" xmlns="http://www.w3.org/2000/svg">
<path d="M19.3438 11.1055C19.3125 11.8242 19.2031 12.5469 19.0156 13.2734C18.8281 13.9922 18.5469 14.6523 18.1719 15.2539C17.7969 15.8555 17.3086 16.3398 16.707 16.707C16.1133 17.0664 15.3945 17.2461 14.5508 17.2461C14.0117 17.2461 13.5391 17.1523 13.1328 16.9648C12.7344 16.7695 12.4062 16.4922 12.1484 16.1328C11.8984 15.7734 11.7227 15.3398 11.6211 14.832C11.5273 14.3242 11.5117 13.7578 11.5742 13.1328L12.1719 6.64062H13.8945L13.2969 13.1328C13.25 13.7031 13.2617 14.168 13.332 14.5273C13.4102 14.8867 13.5273 15.1641 13.6836 15.3594C13.8398 15.5469 14.0156 15.6758 14.2109 15.7461C14.4141 15.8164 14.6094 15.8516 14.7969 15.8516C15.2656 15.8516 15.6836 15.7305 16.0508 15.4883C16.418 15.2383 16.7266 14.8984 16.9766 14.4688C17.2344 14.0312 17.4336 13.5273 17.5742 12.957C17.7148 12.3789 17.8008 11.7617 17.832 11.1055C17.8867 9.94141 17.832 8.87109 17.668 7.89453C17.5117 6.91797 17.2422 6.05078 16.8594 5.29297C16.4844 4.53516 15.9922 3.89453 15.3828 3.37109C14.7734 2.84766 14.0469 2.44922 13.2031 2.17578C12.3594 1.90234 11.3945 1.76562 10.3086 1.76562C9.32422 1.76562 8.41406 1.91797 7.57812 2.22266C6.75 2.51953 6.00391 2.94922 5.33984 3.51172C4.68359 4.07422 4.11719 4.75 3.64062 5.53906C3.17188 6.32812 2.80078 7.21875 2.52734 8.21094C2.26172 9.19531 2.10547 10.2578 2.05859 11.3984C2.00391 12.5703 2.06641 13.6484 2.24609 14.6328C2.42578 15.6094 2.71484 16.4805 3.11328 17.2461C3.51953 18.0195 4.03125 18.6719 4.64844 19.2031C5.26562 19.7422 5.98047 20.1484 6.79297 20.4219C7.60547 20.7031 8.51172 20.8438 9.51172 20.8438C10.1992 20.8438 10.8945 20.7617 11.5977 20.5977C12.3086 20.4336 12.9023 20.2109 13.3789 19.9297L13.8242 21.2656C13.2773 21.6172 12.5938 21.8789 11.7734 22.0508C10.9609 22.2227 10.1914 22.3086 9.46484 22.3086C8.27734 22.3086 7.19141 22.1445 6.20703 21.8164C5.23047 21.4961 4.36328 21.0234 3.60547 20.3984C2.85547 19.7812 2.23047 19.0273 1.73047 18.1367C1.23047 17.2539 0.863281 16.2461 0.628906 15.1133C0.394531 13.9805 0.304688 12.7422 0.359375 11.3984C0.414062 10.1172 0.605469 8.91016 0.933594 7.77734C1.26953 6.64453 1.72656 5.61719 2.30469 4.69531C2.88281 3.77344 3.57031 2.98047 4.36719 2.31641C5.17188 1.64453 6.07422 1.12891 7.07422 0.769531C8.08203 0.410156 9.17578 0.230469 10.3555 0.230469C11.5586 0.230469 12.6484 0.394531 13.625 0.722656C14.6016 1.05078 15.457 1.52344 16.1914 2.14062C16.9336 2.75781 17.5469 3.51172 18.0312 4.40234C18.5156 5.29297 18.8672 6.30078 19.0859 7.42578C19.3125 8.55078 19.3984 9.77734 19.3438 11.1055ZM7.30859 12.1016C7.25391 12.6484 7.25391 13.1367 7.30859 13.5664C7.36328 13.9961 7.46875 14.3594 7.625 14.6562C7.78125 14.9531 7.98438 15.1797 8.23438 15.3359C8.49219 15.4844 8.79297 15.5586 9.13672 15.5586C9.36328 15.5586 9.60156 15.5039 9.85156 15.3945C10.1016 15.2773 10.3477 15.0977 10.5898 14.8555C10.832 14.6133 11.0586 14.2969 11.2695 13.9062C11.4805 13.5156 11.6562 13.0469 11.7969 12.5L12.5703 13.3438C12.3906 13.9844 12.1562 14.5469 11.8672 15.0312C11.5859 15.5156 11.2695 15.9219 10.918 16.25C10.5664 16.5781 10.1914 16.8281 9.79297 17C9.40234 17.1641 9.00391 17.2461 8.59766 17.2461C8.02734 17.2461 7.52734 17.125 7.09766 16.8828C6.66797 16.6328 6.32031 16.2812 6.05469 15.8281C5.78906 15.375 5.60156 14.8359 5.49219 14.2109C5.39062 13.5781 5.375 12.875 5.44531 12.1016C5.51562 11.2812 5.66016 10.5234 5.87891 9.82812C6.09766 9.13281 6.36719 8.51172 6.6875 7.96484C7.01562 7.41797 7.38281 6.95312 7.78906 6.57031C8.20312 6.1875 8.64062 5.89844 9.10156 5.70312C9.5625 5.5 10.0352 5.39844 10.5195 5.39844C11.3633 5.39844 12.0273 5.52344 12.5117 5.77344C12.9961 6.01562 13.457 6.30469 13.8945 6.64062L12.8984 7.80078C12.6719 7.58203 12.375 7.37891 12.0078 7.19141C11.6406 7.00391 11.207 6.91016 10.707 6.91016C10.2773 6.91016 9.875 7.01953 9.5 7.23828C9.125 7.45703 8.78516 7.78516 8.48047 8.22266C8.18359 8.66016 7.93359 9.20312 7.73047 9.85156C7.52734 10.4922 7.38672 11.2422 7.30859 12.1016Z" fill="#B7B2B2"/>
</svg>
