<svg width="44" height="44" viewBox="0 0 44 44" fill="none" xmlns="http://www.w3.org/2000/svg">
<g clip-path="url(#clip0_1047_1386)">
<rect width="44" height="44" rx="22" fill="#FFBC99"/>
<g clip-path="url(#clip1_1047_1386)">
<path d="M29.4529 25.8515C29.2278 25.0262 28.8144 24.5739 27.9899 24.3195C27.2389 24.0677 24.9219 23.2536 24.2518 22.993C23.7979 23.8395 23.132 24.6612 22 25.4286C20.868 24.6612 20.2021 23.8395 19.7482 22.993C19.0781 23.2536 16.7611 24.0677 16.0101 24.3195C15.1856 24.5739 14.7722 25.0262 14.5471 25.8515C14.2925 26.7853 14.2469 27.7812 14.2469 28.7444H29.753C29.753 27.7812 29.7075 26.7853 29.4529 25.8515ZM27.7499 27.0654H25.6065C25.5118 27.0654 25.4209 27.0278 25.3539 26.9608C25.2869 26.8938 25.2493 26.8029 25.2493 26.7082C25.2493 26.6135 25.2869 26.5226 25.3539 26.4556C25.4209 26.3886 25.5118 26.351 25.6065 26.351H27.7499C27.8447 26.351 27.9355 26.3886 28.0025 26.4556C28.0695 26.5226 28.1071 26.6135 28.1071 26.7082C28.1071 26.8029 28.0695 26.8938 28.0025 26.9608C27.9355 27.0278 27.8447 27.0654 27.7499 27.0654Z" fill="#3B4551"/>
<path d="M19.8962 21.0838L19.8968 21.0837L19.8969 21.0838C19.9927 21.2049 20.097 21.3189 20.2092 21.4251C20.2115 21.4278 20.2141 21.4311 20.2164 21.4338C20.2197 21.4338 20.2197 21.4371 20.223 21.4371C20.7098 21.8774 21.3429 22.121 21.9993 22.1205L21.9996 22.1205L21.9999 22.1205L22.0002 22.1205L22.0006 22.1205C22.657 22.121 23.2902 21.8774 23.777 21.4371C23.7803 21.4371 23.7803 21.4338 23.7836 21.4338C23.786 21.4311 23.7885 21.4278 23.7908 21.4251C23.903 21.3189 24.0073 21.2049 24.1031 21.0838L24.1032 21.0837L24.1036 21.0838C24.5991 21.1828 26.1706 21.2357 26.8508 20.6843C26.9531 20.6018 25.4938 15.547 24.9358 14.5929C24.7282 14.2384 24.4369 13.9403 24.0873 13.7246C23.4931 13.3614 22.7832 13.2557 22.0965 13.2557H22.0305C22.0207 13.256 22.0099 13.2567 22 13.2571C21.9901 13.2567 21.9794 13.256 21.9696 13.2557H21.9035C21.2168 13.2557 20.507 13.3614 19.9127 13.7246C19.5631 13.9403 19.2718 14.2384 19.0642 14.5929C18.5062 15.547 17.0469 20.6018 17.1493 20.6843C17.8294 21.2357 19.4009 21.1828 19.8962 21.0838Z" fill="#3B4551"/>
</g>
</g>
<defs>
<clipPath id="clip0_1047_1386">
<rect width="44" height="44" rx="22" fill="white"/>
</clipPath>
<clipPath id="clip1_1047_1386">
<rect width="16" height="16" fill="white" transform="translate(14 13)"/>
</clipPath>
</defs>
</svg>
