<svg width="22" height="18" viewBox="0 0 22 18" fill="none" xmlns="http://www.w3.org/2000/svg">
<path fill-rule="evenodd" clip-rule="evenodd" d="M5.08401 0.0091008C4.23794 -0.0107129 3.39139 0.013435 2.54784 0.0817509C1.88978 0.068129 1.25461 0.32323 0.789043 0.788645C0.323474 1.25385 0.0677794 1.88892 0.0810401 2.5469C0.0126727 3.39043 -0.0115784 4.23705 0.00833844 5.08305V11.0007C0.00833844 12.9028 -0.110028 12.3373 0.545165 13.3061C0.893194 13.779 1.40616 14.1036 1.98233 14.2159C2.45571 14.3096 2.93694 14.3579 3.41949 14.3602C3.42963 14.6646 3.43977 14.9655 3.46936 15.225C3.45566 15.8829 3.71091 16.5182 4.17617 16.9838C4.64143 17.4495 5.27645 17.705 5.93451 17.6918C6.38423 17.7425 6.92612 17.7543 7.52465 17.7595C7.55641 17.7621 7.5883 17.7632 7.62016 17.7623L16.9194 17.7621C17.7654 17.782 18.612 17.7578 19.4555 17.6895C20.1136 17.7027 20.7486 17.447 21.2139 16.9816C21.6791 16.5159 21.9344 15.8807 21.9206 15.2227C21.9889 14.3792 22.0131 13.5328 21.9933 12.6865V10.9958C21.9937 10.9621 21.992 10.9285 21.9883 10.8953C21.9832 10.2984 21.9714 9.75742 21.9206 9.30852C21.9341 8.65054 21.6788 8.01547 21.2136 7.54985C20.7484 7.08444 20.1135 6.82872 19.4555 6.84172C19.1943 6.8122 18.8917 6.80292 18.5856 6.7926C18.6024 6.72222 18.61 6.65019 18.6084 6.57795C18.6247 5.90243 18.5737 5.2269 18.4563 4.5615C18.3524 3.97988 18.0349 3.45833 17.5661 3.099C16.5982 2.42286 17.1519 2.54215 15.2295 2.54215H12.9858C12.1517 2.58942 11.3163 2.47755 10.5241 2.21234C10.1893 2.06952 9.89778 1.84145 9.67869 1.55064C9.28498 1.0842 8.78956 0.714343 8.23054 0.469356C7.24236 0.116425 6.19477 -0.0400206 5.14658 0.00868802H5.0874L5.08401 0.0091008ZM5.08402 1.69987C5.92834 1.6524 6.77406 1.76426 7.57705 2.02947C7.91458 2.17127 8.20859 2.39995 8.4292 2.6922C8.81964 3.15741 9.31119 3.52726 9.86636 3.77349C10.8657 4.13241 11.9263 4.28926 12.9867 4.23498H15.2286C17.1493 4.23498 16.4189 4.36357 16.5939 4.48864C16.6784 4.55035 16.7308 4.59514 16.8019 4.92495C16.8888 5.4787 16.9269 6.03906 16.916 6.59962C16.9159 6.65824 16.9218 6.71644 16.9337 6.77381H16.3657C15.5316 6.82128 14.6961 6.70942 13.9039 6.44441C13.569 6.30118 13.2775 6.07249 13.0585 5.78148C12.6648 5.31503 12.1694 4.94497 11.6104 4.69999C10.6212 4.34767 9.57284 4.19123 8.52388 4.23952H8.4647C7.61862 4.21992 6.7721 4.24448 5.92857 4.313C5.27052 4.29938 4.63532 4.55448 4.16972 5.01989C3.70415 5.4851 3.44846 6.12017 3.46172 6.77815C3.39335 7.62167 3.36908 8.46809 3.38902 9.3143V12.6696C3.04241 12.6636 2.69675 12.631 2.35512 12.5722C2.04148 12.5006 2.00598 12.4558 1.94427 12.3644C1.82085 12.1817 1.69828 12.9064 1.69828 11.0051V5.08738C1.69828 4.03313 1.70336 3.25545 1.76084 2.74318C1.81832 2.23091 1.91724 2.05672 1.98403 1.98985C2.05082 1.92298 2.22326 1.82659 2.73558 1.76921C3.2479 1.71184 4.03067 1.69987 5.08402 1.69987ZM8.46555 5.92678C9.30985 5.87952 10.1555 5.99118 10.9586 6.25639C11.296 6.39777 11.59 6.62624 11.8107 6.91808C12.2011 7.3835 12.6926 7.75335 13.2479 7.99958C14.247 8.35932 15.3077 8.51639 16.3682 8.46231L16.9194 8.4621C17.9736 8.4621 18.7522 8.46726 19.2636 8.52464C19.7751 8.58202 19.9501 8.68109 20.0169 8.74775C20.0836 8.81442 20.1809 8.98696 20.2383 9.49922C20.2958 10.0115 20.3009 10.7902 20.3009 11.8434V12.6888C20.3009 13.7422 20.2958 14.5224 20.2383 15.0338C20.1809 15.5453 20.0836 15.7187 20.0169 15.7845C19.9501 15.8503 19.7759 15.9535 19.2636 16.0076C18.7513 16.0617 17.9736 16.0693 16.9194 16.0693H8.46555C7.41135 16.0693 6.63276 16.0642 6.12129 16.0076C5.60983 15.951 5.43483 15.8512 5.36806 15.7845C5.30129 15.7178 5.20406 15.5445 5.14658 15.0338C5.0891 14.5232 5.08401 13.7424 5.08401 12.6898V9.30831C5.08401 8.25489 5.0891 7.47555 5.14658 6.96493C5.20406 6.45432 5.30297 6.27847 5.36977 6.21078C5.43656 6.14308 5.60985 6.04752 6.12132 5.99014C6.63278 5.93277 7.4122 5.92678 8.46555 5.92678Z" fill="#333637"/>
</svg>
