<svg width="148" height="128" viewBox="0 0 148 128" fill="none" xmlns="http://www.w3.org/2000/svg">
<g opacity="0.3">
<circle cx="4" cy="4" r="4" fill="#FF9736"/>
<circle cx="24" cy="4" r="4" fill="#FF9736"/>
<circle cx="44" cy="4" r="4" fill="#FF9736"/>
<circle cx="64" cy="4" r="4" fill="#FF9736"/>
<circle cx="4" cy="28" r="4" fill="#FF9736"/>
<circle cx="24" cy="28" r="4" fill="#FF9736"/>
<circle cx="44" cy="28" r="4" fill="#FF9736"/>
<circle cx="64" cy="28" r="4" fill="#FF9736"/>
<circle cx="4" cy="52" r="4" fill="#FF9736"/>
<circle cx="24" cy="52" r="4" fill="#FF9736"/>
<circle cx="44" cy="52" r="4" fill="#FF9736"/>
<circle cx="64" cy="52" r="4" fill="#FF9736"/>
<circle cx="84" cy="4" r="4" fill="#FF9736"/>
<circle cx="104" cy="4" r="4" fill="#FF9736"/>
<circle cx="124" cy="4" r="4" fill="#FF9736"/>
<circle cx="144" cy="4" r="4" fill="#FF9736"/>
<circle cx="84" cy="28" r="4" fill="#FF9736"/>
<circle cx="104" cy="28" r="4" fill="#FF9736"/>
<circle cx="124" cy="28" r="4" fill="#FF9736"/>
<circle cx="144" cy="28" r="4" fill="#FF9736"/>
<circle cx="84" cy="52" r="4" fill="#FF9736"/>
<circle cx="104" cy="52" r="4" fill="#FF9736"/>
<circle cx="124" cy="52" r="4" fill="#FF9736"/>
<circle cx="144" cy="52" r="4" fill="#FF9736"/>
<circle cx="4" cy="76" r="4" fill="#FF9736"/>
<circle cx="24" cy="76" r="4" fill="#FF9736"/>
<circle cx="44" cy="76" r="4" fill="#FF9736"/>
<circle cx="64" cy="76" r="4" fill="#FF9736"/>
<circle cx="4" cy="100" r="4" fill="#FF9736"/>
<circle cx="24" cy="100" r="4" fill="#FF9736"/>
<circle cx="44" cy="100" r="4" fill="#FF9736"/>
<circle cx="64" cy="100" r="4" fill="#FF9736"/>
<circle cx="4" cy="124" r="4" fill="#FF9736"/>
<circle cx="24" cy="124" r="4" fill="#FF9736"/>
<circle cx="44" cy="124" r="4" fill="#FF9736"/>
<circle cx="64" cy="124" r="4" fill="#FF9736"/>
<circle cx="84" cy="76" r="4" fill="#FF9736"/>
<circle cx="104" cy="76" r="4" fill="#FF9736"/>
<circle cx="124" cy="76" r="4" fill="#FF9736"/>
<circle cx="144" cy="76" r="4" fill="#FF9736"/>
<circle cx="84" cy="100" r="4" fill="#FF9736"/>
<circle cx="104" cy="100" r="4" fill="#FF9736"/>
<circle cx="124" cy="100" r="4" fill="#FF9736"/>
<circle cx="144" cy="100" r="4" fill="#FF9736"/>
<circle cx="84" cy="124" r="4" fill="#FF9736"/>
<circle cx="104" cy="124" r="4" fill="#FF9736"/>
<circle cx="124" cy="124" r="4" fill="#FF9736"/>
<circle cx="144" cy="124" r="4" fill="#FF9736"/>
</g>
</svg>
