<svg width="50" height="50" viewBox="0 0 50 50" fill="none" xmlns="http://www.w3.org/2000/svg">
<rect opacity="0.7" x="49.3157" y="49.75" width="49.0657" height="49.5" rx="4.75" transform="rotate(-180 49.3157 49.75)" fill="white" stroke="#FF6812" stroke-width="0.5"/>
<path fill-rule="evenodd" clip-rule="evenodd" d="M35.0007 25.625C35.0007 25.9801 34.8609 26.3207 34.6119 26.5718C34.363 26.823 34.0254 26.964 33.6733 26.964L18.2939 26.964L23.9938 32.7112C24.2431 32.9627 24.3831 33.3037 24.3831 33.6593C24.3831 34.0148 24.2431 34.3559 23.9938 34.6073C23.7446 34.8587 23.4065 35 23.054 35C22.7015 35 22.3635 34.8587 22.1142 34.6073L14.1497 26.573C14.0261 26.4487 13.928 26.3009 13.8611 26.1382C13.7942 25.9755 13.7598 25.8011 13.7598 25.625C13.7598 25.4489 13.7942 25.2745 13.8611 25.1118C13.928 24.9491 14.0261 24.8013 14.1497 24.677L22.1142 16.6427C22.3635 16.3913 22.7015 16.25 23.054 16.25C23.4065 16.25 23.7446 16.3913 23.9938 16.6427C24.2431 16.8941 24.3831 17.2352 24.3831 17.5907C24.3831 17.9463 24.2431 18.2873 23.9938 18.5388L18.2939 24.286L33.6733 24.286C34.0254 24.286 34.363 24.427 34.6119 24.6782C34.8609 24.9293 35.0007 25.2699 35.0007 25.625Z" fill="#FF6812"/>
</svg>
