<svg width="37" height="144" viewBox="0 0 37 144" fill="none" xmlns="http://www.w3.org/2000/svg">
<path d="M23 0.999999C23 0.447714 23.4477 0 24 0V0C24.5523 0 25 0.447715 25 1V48H23V0.999999Z" fill="#EFEFEF"/>
<path d="M24 12V16C24 20.4183 27.5817 24 32 24H36" stroke="#EFEFEF" stroke-width="2" stroke-linecap="round"/>
<path d="M23 49C23 48.4477 23.4477 48 24 48V48C24.5523 48 25 48.4477 25 49V96H23V49Z" fill="#EFEFEF"/>
<path d="M24 60V64C24 68.4183 27.5817 72 32 72H36" stroke="#EFEFEF" stroke-width="2" stroke-linecap="round"/>
<path d="M23 97C23 96.4477 23.4477 96 24 96V96C24.5523 96 25 96.4477 25 97V111H23V97Z" fill="#EFEFEF"/>
<path d="M24 108V112C24 116.418 27.5817 120 32 120H36" stroke="#EFEFEF" stroke-width="2" stroke-linecap="round"/>
</svg>