<svg width="23" height="23" viewBox="0 0 23 23" fill="none" xmlns="http://www.w3.org/2000/svg">
<path fill-rule="evenodd" clip-rule="evenodd" d="M17.3 13.5V8.5C17.2396 5.18469 14.5349 2.52856 11.219 2.52856C7.90308 2.52856 5.19836 5.18469 5.13794 8.5L5.13806 13.5C5.13904 14.2029 4.9519 14.8934 4.59607 15.4999L17.843 15.5C17.4869 14.8937 17.2994 14.2032 17.3 13.5ZM21.354 17.5H1.08398C0.726685 17.5 0.396606 17.3094 0.218018 17C0.0393066 16.6905 0.0393066 16.3094 0.218018 16C0.396606 15.6906 0.726685 15.5 1.08398 15.5C2.1958 15.5072 3.10315 14.6119 3.11084 13.5L3.11096 8.5C3.18152 4.07239 6.79089 0.520142 11.219 0.520142C15.6471 0.520142 19.2565 4.07239 19.3269 8.5V13.5C19.3303 14.0341 19.5458 14.5448 19.926 14.9199C20.3062 15.295 20.8198 15.5038 21.3539 15.5C21.7112 15.5 22.0414 15.6906 22.22 16C22.3987 16.3093 22.3987 16.6905 22.2201 17C22.0415 17.3093 21.7113 17.5 21.354 17.5ZM13.849 21C13.297 21.9269 12.2979 22.4949 11.219 22.4949C10.1401 22.4949 9.14099 21.9269 8.58899 21C8.4093 20.689 8.4104 20.3054 8.59167 19.9952C8.77295 19.6852 9.10669 19.4961 9.46594 19.5H12.9729C13.3319 19.4965 13.6653 19.6855 13.8464 19.9956C14.0275 20.3058 14.0284 20.6891 13.8489 21H13.849Z" fill="#809FB8"/>
</svg>
