<svg width="17" height="15" viewBox="0 0 17 15" fill="none" xmlns="http://www.w3.org/2000/svg">
<path fill-rule="evenodd" clip-rule="evenodd" d="M6.61206 13.5791L6.59808 13.4259V8.83637H1.49811C0.735718 8.83959 0.101501 8.31225 0.0487061 7.6312C-0.00415039 6.95011 0.542542 6.3493 1.2981 6.25813L1.47107 6.24561H6.59705V1.67847C6.60107 0.99885 7.18964 0.437017 7.94672 0.390011C8.7038 0.343005 9.37329 0.826731 9.48206 1.4993L9.49506 1.65426V6.24113H14.595C15.3578 6.23807 15.9922 6.76574 16.045 7.44717C16.0978 8.12859 15.551 8.72973 14.795 8.82112L14.621 8.83188H9.49506V13.399C9.49457 14.0803 8.90552 14.6453 8.14649 14.6925C7.38739 14.7397 6.7168 14.253 6.61115 13.5782L6.61206 13.5791Z" fill="#FF6812"/>
</svg>
