<svg width="22" height="24" viewBox="0 0 22 24" fill="none" xmlns="http://www.w3.org/2000/svg">
<path d="M8 1.73205C9.4641 0.886751 10.1962 0.464102 11 0.464102C11.8038 0.464102 12.5359 0.886751 14 1.73205L18.3923 4.26795C19.8564 5.11325 20.5885 5.5359 20.9904 6.23205C21.3923 6.9282 21.3923 7.7735 21.3923 9.4641V14.5359C21.3923 16.2265 21.3923 17.0718 20.9904 17.768C20.5885 18.4641 19.8564 18.8868 18.3923 19.7321L14 22.268C12.5359 23.1132 11.8038 23.5359 11 23.5359C10.1962 23.5359 9.4641 23.1132 8 22.2679L3.6077 19.732C2.14359 18.8868 1.41154 18.4641 1.00962 17.768C0.607696 17.0718 0.607696 16.2265 0.607696 14.5359V9.4641C0.607696 7.7735 0.607696 6.9282 1.00962 6.23205C1.41154 5.5359 2.14359 5.11325 3.6077 4.26795L8 1.73205Z" fill="#FF6812"/>
</svg>
