<svg width="50" height="50" viewBox="0 0 50 50" fill="none" xmlns="http://www.w3.org/2000/svg">
<rect opacity="0.7" x="0.25" y="0.25" width="49.0657" height="49.5" rx="4.75" fill="white" stroke="#FF6812" stroke-width="0.5"/>
<path fill-rule="evenodd" clip-rule="evenodd" d="M14.0005 25.375C14.0005 25.0198 14.1403 24.6792 14.3893 24.4281C14.6382 24.177 14.9758 24.0359 15.3279 24.0359H30.7073L25.0074 18.2887C24.7581 18.0373 24.6181 17.6963 24.6181 17.3407C24.6181 16.9851 24.7581 16.6441 25.0074 16.3927C25.2566 16.1412 25.5947 16 25.9472 16C26.2997 16 26.6378 16.1412 26.887 16.3927L34.8515 24.4269C34.9751 24.5513 35.0732 24.6991 35.1401 24.8618C35.207 25.0244 35.2415 25.1988 35.2415 25.375C35.2415 25.5511 35.207 25.7255 35.1401 25.8882C35.0732 26.0509 34.9751 26.1986 34.8515 26.323L26.887 34.3573C26.6378 34.6087 26.2997 34.75 25.9472 34.75C25.5947 34.75 25.2566 34.6087 25.0074 34.3573C24.7581 34.1058 24.6181 33.7648 24.6181 33.4092C24.6181 33.0536 24.7581 32.7126 25.0074 32.4612L30.7073 26.714H15.3279C14.9758 26.714 14.6382 26.5729 14.3893 26.3218C14.1403 26.0707 14.0005 25.7301 14.0005 25.375Z" fill="#FF6812"/>
</svg>
