<svg width="16" height="16" viewBox="0 0 16 16" fill="none" xmlns="http://www.w3.org/2000/svg">
<path fill-rule="evenodd" clip-rule="evenodd" d="M14.203 15.04L10.8726 11.7319C8.27535 13.7654 4.53227 13.4357 2.33515 10.9799C0.138759 8.52414 0.249503 4.79324 2.58838 2.47026C4.92651 0.147351 8.68289 0.0372783 11.1554 2.21924C13.6272 4.40127 13.9594 8.1192 11.9121 10.6994L15.2432 14.0074C15.4898 14.2987 15.4714 14.729 15.2004 14.9981C14.9295 15.2672 14.4961 15.2857 14.203 15.0407V15.04ZM2.22736 6.85596C2.22736 8.76365 3.37687 10.4856 5.14579 11.2277C6.91471 11.9699 8.959 11.5881 10.3352 10.2583C10.3492 10.2415 10.3647 10.2252 10.3802 10.2095C10.3964 10.1934 10.4127 10.1787 10.4297 10.1648C11.9306 8.63084 12.2134 6.28872 11.1185 4.44615C10.0243 2.6035 7.82427 1.71602 5.74675 2.27915C3.66848 2.8422 2.22735 4.71668 2.22662 6.85596H2.22736Z" fill="#99B2C6"/>
</svg>
