<svg width="22" height="22" viewBox="0 0 22 22" fill="none" xmlns="http://www.w3.org/2000/svg">
<g clip-path="url(#clip0_112_234)">
<path d="M15.6666 19.25V17.4167C15.6666 16.4442 15.2803 15.5116 14.5927 14.8239C13.9051 14.1363 12.9724 13.75 12 13.75H5.58329C4.61083 13.75 3.6782 14.1363 2.99057 14.8239C2.30293 15.5116 1.91663 16.4442 1.91663 17.4167V19.25" stroke="#FF6812" stroke-linecap="round" stroke-linejoin="round"/>
<path d="M8.79167 10.0833C10.8167 10.0833 12.4583 8.44171 12.4583 6.41667C12.4583 4.39162 10.8167 2.75 8.79167 2.75C6.76662 2.75 5.125 4.39162 5.125 6.41667C5.125 8.44171 6.76662 10.0833 8.79167 10.0833Z" stroke="#FF6812" stroke-linecap="round" stroke-linejoin="round"/>
<path d="M19.3334 7.33331V12.8333" stroke="#FF6812" stroke-linecap="round" stroke-linejoin="round"/>
<path d="M22.0834 10.0833H16.5834" stroke="#FF6812" stroke-linecap="round" stroke-linejoin="round"/>
</g>
<defs>
<clipPath id="clip0_112_234">
<rect width="22" height="22" fill="white"/>
</clipPath>
</defs>
</svg>
