<svg width="22" height="22" viewBox="0 0 22 22" fill="none" xmlns="http://www.w3.org/2000/svg">
<g clip-path="url(#clip0_112_463)">
<path d="M14.6667 19.25V17.4167C14.6667 16.4442 14.2803 15.5116 13.5927 14.8239C12.9051 14.1363 11.9725 13.75 11 13.75H4.58332C3.61086 13.75 2.67823 14.1363 1.9906 14.8239C1.30296 15.5116 0.916656 16.4442 0.916656 17.4167V19.25" stroke="white" stroke-width="2" stroke-linecap="round" stroke-linejoin="round"/>
<path d="M7.79167 10.0833C9.81671 10.0833 11.4583 8.44171 11.4583 6.41667C11.4583 4.39162 9.81671 2.75 7.79167 2.75C5.76662 2.75 4.125 4.39162 4.125 6.41667C4.125 8.44171 5.76662 10.0833 7.79167 10.0833Z" stroke="white" stroke-width="2" stroke-linecap="round" stroke-linejoin="round"/>
<path d="M15.5833 10.0833L17.4167 11.9167L21.0833 8.25" stroke="white" stroke-width="2" stroke-linecap="round" stroke-linejoin="round"/>
</g>
<defs>
<clipPath id="clip0_112_463">
<rect width="22" height="22" fill="white"/>
</clipPath>
</defs>
</svg>
