<svg width="38" height="38" viewBox="0 0 38 38" fill="none" xmlns="http://www.w3.org/2000/svg">
<rect width="38" height="38" rx="2" fill="#2A2C2B"/>
<path fill-rule="evenodd" clip-rule="evenodd" d="M11.8139 27.0018C11.5423 26.5418 11.469 25.9913 11.6107 25.4763C11.7524 24.9613 12.097 24.5259 12.5657 24.2696L25.9068 16.7697C26.8866 16.2165 28.1285 16.5405 28.7131 17.5018C28.9847 17.9619 29.0581 18.5124 28.9164 19.0275C28.7747 19.5427 28.43 19.9782 27.9614 20.2347L14.6183 27.7333C14.3052 27.9094 13.9521 28.0019 13.5929 28.0018C12.8651 28.0055 12.1891 27.6255 11.8139 27.0018V27.0018ZM10.2736 19.5015C10.0022 19.0415 9.92898 18.4911 10.0707 17.9762C10.2124 17.4612 10.5568 17.0257 11.0254 16.7693L24.3672 9.26998C25.3465 8.71647 26.5884 9.04025 27.1728 10.0015C27.4444 10.4615 27.5178 11.0121 27.3761 11.5272C27.2344 12.0423 26.8897 12.4779 26.4211 12.7343L13.0799 20.2336C12.767 20.4094 12.4141 20.5017 12.0552 20.5015C11.3264 20.5055 10.6494 20.1253 10.2736 19.5008V19.5015Z" fill="white"/>
</svg>
